<svg width="320" height="169" viewBox="0 0 320 169" fill="none" xmlns="http://www.w3.org/2000/svg">
<g opacity="0.3" clip-path="url(#clip0_3866_23818)">
<g opacity="0.1">
<path d="M179.818 -34.29C179.818 -33.0454 180.312 -31.8518 181.192 -30.9717C182.072 -30.0916 183.266 -29.5972 184.511 -29.5972C185.755 -29.5972 186.949 -30.0916 187.829 -30.9717C188.709 -31.8518 189.203 -33.0454 189.203 -34.29H179.818ZM71.8822 -34.0272C63.062 -34.0067 54.338 -32.1929 46.2405 -28.6962C45.6562 -28.4759 45.1216 -28.1412 44.6683 -27.7118C44.2149 -27.2823 43.8519 -26.7666 43.6003 -26.1951C43.3488 -25.6235 43.2139 -25.0074 43.2035 -24.383C43.1931 -23.7586 43.3074 -23.1384 43.5398 -22.5588C43.7722 -21.9792 44.1179 -21.4517 44.5567 -21.0074C44.9955 -20.5631 45.5185 -20.2108 46.0952 -19.9712C46.6719 -19.7316 47.2907 -19.6095 47.9151 -19.6121C48.5396 -19.6147 49.1573 -19.7419 49.732 -19.9862C56.7212 -23.0264 64.2604 -24.5982 71.8822 -24.604C79.5034 -24.604 87.0495 -23.0272 94.0324 -19.9862C94.9417 -19.5857 95.9546 -19.484 96.9254 -19.696C97.8961 -19.9079 98.7745 -20.4224 99.4341 -21.1655C100.094 -21.9086 100.5 -22.8418 100.596 -23.8308C100.691 -24.8198 100.47 -25.8135 99.9642 -26.6689C99.4132 -27.6095 98.5496 -28.327 97.5239 -28.6962C89.4264 -32.1929 80.7024 -34.0067 71.8822 -34.0272ZM170.47 -32.7883C169.703 -32.7324 168.961 -32.4889 168.31 -32.0792C167.66 -31.6695 167.119 -31.1061 166.738 -30.4386C166.356 -29.7712 166.144 -29.0201 166.12 -28.2515C166.096 -27.4828 166.262 -26.7202 166.603 -26.0306C167.116 -24.9125 167.732 -23.8443 168.442 -22.8395C168.789 -22.3203 169.236 -21.8754 169.756 -21.531C170.277 -21.1866 170.861 -20.9496 171.475 -20.8338C172.088 -20.7181 172.719 -20.7259 173.329 -20.8568C173.94 -20.9878 174.518 -21.2392 175.03 -21.5964C175.542 -21.9536 175.978 -22.4093 176.311 -22.937C176.645 -23.4647 176.87 -24.0536 176.973 -24.6693C177.077 -25.2851 177.056 -25.9152 176.913 -26.5229C176.769 -27.1305 176.506 -27.7034 176.138 -28.2081C175.736 -28.7772 175.385 -29.3801 175.087 -30.0102C174.698 -30.8852 174.051 -31.6204 173.233 -32.117C172.414 -32.6136 171.463 -32.8478 170.507 -32.7883H170.47ZM124.48 -32.2252C123.83 -32.1766 123.198 -31.9932 122.623 -31.6869C122.048 -31.3806 121.543 -30.958 121.141 -30.4459C120.738 -29.9339 120.447 -29.3436 120.285 -28.7127C120.123 -28.0818 120.094 -27.4241 120.2 -26.7815C121.239 -18.0108 124.049 -9.54267 128.459 -1.89063C132.867 5.7509 138.781 12.418 145.841 17.7067C146.529 18.2795 147.366 18.6437 148.254 18.7564C149.142 18.8691 150.043 18.7257 150.852 18.3429C151.661 17.9601 152.344 17.354 152.82 16.5961C153.295 15.8381 153.545 14.9599 153.538 14.065C153.538 12.5258 152.787 11.1367 151.623 10.3108C145.502 5.76848 140.378 0.0184822 136.568 -6.58348C132.756 -13.193 130.341 -20.5148 129.473 -28.0955C129.331 -29.2938 128.733 -30.3914 127.803 -31.1604C126.874 -31.9294 125.683 -32.3108 124.48 -32.2252ZM155.715 -29.447C154.982 -29.4006 154.27 -29.1828 153.637 -28.8111C153.004 -28.4394 152.466 -27.9243 152.068 -27.3072C151.67 -26.69 151.423 -25.988 151.345 -25.2577C151.268 -24.5274 151.363 -23.7891 151.623 -23.1023C153.09 -18.7944 155.386 -14.8151 158.381 -11.389C158.994 -10.6338 159.828 -10.0881 160.765 -9.82737C161.703 -9.56665 162.698 -9.60381 163.614 -9.9337C164.529 -10.2636 165.319 -10.8699 165.875 -11.6687C166.431 -12.4675 166.724 -13.4193 166.715 -14.3924C166.715 -15.5562 166.265 -16.6449 165.551 -17.4709C163.277 -20.0269 161.541 -23.0146 160.446 -26.2559C160.117 -27.2337 159.476 -28.0762 158.621 -28.653C157.766 -29.2298 156.745 -29.5089 155.715 -29.447ZM140.21 -29.1842C139.516 -29.137 138.84 -28.9359 138.233 -28.5955C137.626 -28.2551 137.103 -27.7839 136.7 -27.2161C136.298 -26.6483 136.026 -25.9981 135.906 -25.3125C135.786 -24.627 135.82 -23.9233 136.005 -23.2525C137.119 -18.3892 138.954 -13.7198 141.449 -9.39918C143.942 -5.079 147.068 -1.15616 150.722 2.23907C151.378 2.88955 152.212 3.33186 153.118 3.51055C154.025 3.68924 154.964 3.59636 155.818 3.24356C156.672 2.89076 157.403 2.29374 157.919 1.52733C158.435 0.760921 158.713 -0.140759 158.719 -1.06469C158.719 -2.45377 158.155 -3.69268 157.217 -4.55617C154.197 -7.32925 151.614 -10.5444 149.558 -14.092C147.512 -17.6502 146.019 -21.4984 145.128 -25.505C144.888 -26.6002 144.264 -27.5732 143.369 -28.2481C142.474 -28.923 141.366 -29.255 140.248 -29.1842H140.21ZM261.473 -22.2764C260.347 -22.2764 259.258 -21.8634 258.47 -21.1876C251.395 -15.9035 245.468 -9.23598 241.05 -1.59029C236.64 6.06175 233.83 14.5299 232.791 23.3006C232.621 24.5352 232.949 25.7866 233.703 26.7793C234.456 27.772 235.573 28.4248 236.808 28.5941C238.042 28.7634 239.294 28.4352 240.286 27.6819C241.279 26.9285 241.932 25.8117 242.101 24.577C242.963 17.012 245.365 9.70366 249.159 3.10256C252.979 -3.50363 258.116 -9.25406 264.251 -13.7917C265.055 -14.3777 265.652 -15.204 265.956 -16.1512C266.259 -17.0985 266.254 -18.1178 265.941 -19.0619C265.627 -20.006 265.022 -20.8261 264.212 -21.4039C263.403 -21.9817 262.43 -22.2872 261.436 -22.2764H261.473ZM71.8822 -19.0101C66.889 -19.0101 61.9334 -18.2217 57.1654 -16.7576C56.5738 -16.585 56.022 -16.2976 55.5414 -15.9118C55.0609 -15.526 54.661 -15.0493 54.3647 -14.5089C54.0684 -13.9686 53.8814 -13.3751 53.8144 -12.7625C53.7474 -12.1499 53.8018 -11.5301 53.9743 -10.9384C54.1469 -10.3468 54.4343 -9.79497 54.8201 -9.31442C55.2059 -8.83387 55.6826 -8.43401 56.223 -8.13769C56.7633 -7.84137 57.3568 -7.65437 57.9694 -7.58739C58.582 -7.52041 59.2018 -7.57475 59.7934 -7.7473C63.7048 -8.98138 67.7808 -9.61431 71.8822 -9.62444C76.0119 -9.62444 80.0665 -8.94867 83.971 -7.7473C85.1658 -7.39881 86.4501 -7.53924 87.5414 -8.13769C88.6328 -8.73614 89.4416 -9.7436 89.7901 -10.9384C90.1386 -12.1333 89.9982 -13.4176 89.3997 -14.5089C88.8013 -15.6002 87.7938 -16.4091 86.599 -16.7576C81.8335 -18.2397 76.8728 -18.999 71.8822 -19.0101ZM266.654 -7.14662C265.34 -7.14662 264.176 -6.62102 263.35 -5.75754C259.684 -2.36422 256.545 1.55863 254.04 5.88072C251.558 10.2035 249.736 14.8728 248.634 19.734C248.433 20.3472 248.361 20.9953 248.422 21.6377C248.483 22.28 248.675 22.9029 248.988 23.4674C249.3 24.032 249.726 24.5259 250.238 24.9185C250.75 25.3111 251.338 25.5939 251.964 25.7492C252.59 25.9045 253.242 25.9289 253.878 25.821C254.514 25.7131 255.121 25.4752 255.662 25.1221C256.202 24.769 256.663 24.3083 257.017 23.7688C257.371 23.2293 257.61 22.6226 257.719 21.9866C258.622 17.9782 260.129 14.1301 262.186 10.5736C264.239 7.01269 266.822 3.78466 269.845 1.00016C270.542 0.359699 271.028 -0.476257 271.241 -1.39807C271.454 -2.31988 271.383 -3.28449 271.038 -4.16538C270.693 -5.04627 270.09 -5.80231 269.307 -6.33432C268.525 -6.86633 267.6 -7.14948 266.654 -7.14662ZM71.8822 -3.95548C69.6296 -3.95548 67.3395 -3.73022 65.1245 -3.27971C64.1631 -3.1309 63.2717 -2.68697 62.5737 -2.00934C61.8756 -1.33171 61.4054 -0.453892 61.2281 0.502674C61.0508 1.45924 61.1752 2.44727 61.584 3.33005C61.9929 4.21283 62.666 4.94673 63.5102 5.43021C64.5614 6.03089 65.7252 6.18106 66.8139 5.95581C70.1584 5.27417 73.606 5.27417 76.9505 5.95581C77.5569 6.06674 78.1792 6.05714 78.7819 5.92756C79.3846 5.79798 79.9559 5.55096 80.4631 5.2006C80.9704 4.85024 81.4036 4.4034 81.7382 3.8856C82.0727 3.3678 82.302 2.78917 82.413 2.18276C82.5239 1.57635 82.5143 0.954021 82.3847 0.351318C82.2551 -0.251385 82.0081 -0.822662 81.6577 -1.3299C81.3074 -1.83714 80.8605 -2.2704 80.3428 -2.60495C79.825 -2.9395 79.2463 -3.16878 78.6399 -3.27971C76.4147 -3.7245 74.1514 -3.95084 71.8822 -3.95548ZM274.651 6.14352C273.149 6.14352 271.873 6.78175 271.009 7.87049C268.015 11.2972 265.719 15.2763 264.251 19.5838C264.001 20.1724 263.873 20.8059 263.876 21.4456C263.88 22.0853 264.013 22.7175 264.27 23.3035C264.526 23.8896 264.9 24.417 265.368 24.8534C265.835 25.2898 266.387 25.6259 266.99 25.8412C267.592 26.0565 268.232 26.1464 268.87 26.1054C269.509 26.0643 270.132 25.8932 270.702 25.6025C271.271 25.3119 271.776 24.9078 272.184 24.4151C272.592 23.9224 272.895 23.3515 273.074 22.7374C274.155 19.4979 275.879 16.5099 278.142 13.9524C278.742 13.2772 279.134 12.4434 279.271 11.5509C279.409 10.6584 279.286 9.7452 278.917 8.92084C278.549 8.09648 277.95 7.39597 277.193 6.90334C276.437 6.41071 275.554 6.14689 274.651 6.14352ZM71.8822 11.0616C71.2815 11.0616 70.6433 11.0992 70.0426 11.1743C69.4219 11.2194 68.8163 11.3876 68.2612 11.669C67.706 11.9505 67.2124 12.3395 66.8091 12.8135C66.4058 13.2875 66.1007 13.8371 65.9118 14.4301C65.7228 15.0231 65.6537 15.6478 65.7085 16.2677C65.7633 16.8877 65.9409 17.4906 66.2309 18.0413C66.5209 18.592 66.9175 19.0795 67.3977 19.4755C67.8779 19.8714 68.4321 20.1679 69.028 20.3476C69.6238 20.5274 70.2495 20.5868 70.8686 20.5224C71.5553 20.457 72.2467 20.457 72.9334 20.5224C73.5497 20.5742 74.1701 20.504 74.7593 20.316C75.3485 20.128 75.8948 19.8258 76.3672 19.4266C76.8396 19.0275 77.2287 18.5392 77.5124 17.9896C77.796 17.4401 77.9687 16.84 78.0205 16.2238C78.0722 15.6075 78.0021 14.987 77.8141 14.3979C77.6261 13.8087 77.3239 13.2623 76.9247 12.79C76.5255 12.3176 76.0372 11.9284 75.4877 11.6448C74.9381 11.3611 74.3381 11.1885 73.7218 11.1367C73.1099 11.0866 72.4962 11.0615 71.8822 11.0616ZM284.937 17.2937C283.323 17.2937 281.896 18.0821 281.033 19.3586C280.334 20.3635 279.73 21.4319 279.231 22.5497C278.929 23.1116 278.744 23.7291 278.689 24.3647C278.633 25.0002 278.708 25.6404 278.908 26.246C279.109 26.8517 279.43 27.4102 279.854 27.8874C280.277 28.3645 280.794 28.7503 281.371 29.0212C281.949 29.2921 282.576 29.4424 283.213 29.4629C283.851 29.4834 284.486 29.3737 285.08 29.1405C285.673 28.9072 286.213 28.5554 286.667 28.1064C287.12 27.6575 287.477 27.1208 287.716 26.5292C288.003 25.8939 288.355 25.29 288.767 24.7272C289.272 24.0248 289.573 23.1963 289.637 22.3334C289.701 21.4705 289.525 20.6066 289.129 19.8374C288.733 19.0682 288.132 18.4235 287.392 17.9746C286.652 17.5257 285.803 17.29 284.937 17.2937ZM297.139 26.0787C295.894 26.0787 294.701 26.5732 293.82 27.4532C292.94 28.3333 292.446 29.527 292.446 30.7716C292.446 32.0162 292.94 33.2098 293.82 34.0899C294.701 34.97 295.894 35.4644 297.139 35.4644C298.383 35.4644 299.577 34.97 300.457 34.0899C301.337 33.2098 301.832 32.0162 301.832 30.7716C301.832 29.527 301.337 28.3333 300.457 27.4532C299.577 26.5732 298.383 26.0787 297.139 26.0787ZM72.2201 26.0787C71.6038 26.0368 70.9853 26.1167 70.3999 26.3138C69.8145 26.511 69.2737 26.8214 68.8083 27.2276C68.3429 27.6337 67.962 28.1276 67.6875 28.6809C67.4129 29.2342 67.25 29.8362 67.2081 30.4525C67.1662 31.0687 67.2461 31.6872 67.4432 32.2726C67.6404 32.858 67.9509 33.3989 68.357 33.8643C68.7631 34.3297 69.257 34.7105 69.8103 34.9851C70.3636 35.2596 70.9656 35.4225 71.5819 35.4644C72.8265 35.5491 74.0537 35.1358 74.9937 34.3156C75.9336 33.4953 76.5092 32.3353 76.5938 31.0907C76.6785 29.8461 76.2652 28.6188 75.445 27.6789C74.6247 26.739 73.4647 26.1634 72.2201 26.0787ZM311.142 32.2357C310.18 32.1628 309.218 32.391 308.391 32.8887C307.563 33.3865 306.911 34.1291 306.525 35.0139C306.247 35.6467 305.908 36.2503 305.511 36.816C305.143 37.3206 304.88 37.8936 304.737 38.5012C304.593 39.1089 304.573 39.739 304.676 40.3547C304.779 40.9705 305.004 41.5594 305.338 42.0871C305.672 42.6147 306.107 43.0705 306.619 43.4277C307.131 43.7849 307.71 44.0363 308.32 44.1673C308.93 44.2982 309.561 44.306 310.174 44.1902C310.788 44.0745 311.372 43.8374 311.893 43.493C312.414 43.1487 312.86 42.7038 313.207 42.1846C313.918 41.1804 314.534 40.112 315.047 38.9934C315.388 38.3011 315.553 37.5353 315.528 36.7639C315.502 35.9925 315.287 35.2393 314.901 34.571C314.515 33.9026 313.97 33.3399 313.314 32.9326C312.658 32.5252 311.912 32.2859 311.142 32.2357ZM357.132 32.8364C355.926 32.7413 354.731 33.1192 353.799 33.89C352.867 34.6608 352.272 35.764 352.139 36.9661C351.282 44.5441 348.88 51.8657 345.081 58.4781C341.26 65.0837 336.123 70.834 329.989 75.3724C329.503 75.752 329.097 76.2236 328.794 76.7601C328.49 77.2967 328.296 77.8878 328.221 78.4996C328.146 79.1114 328.192 79.732 328.357 80.3259C328.522 80.9199 328.802 81.4755 329.182 81.9611C329.561 82.4468 330.033 82.8529 330.569 83.1562C331.106 83.4596 331.697 83.6544 332.309 83.7293C332.921 83.8043 333.541 83.758 334.135 83.5931C334.729 83.4282 335.285 83.1479 335.77 82.7683C342.845 77.4842 348.772 70.8167 353.19 63.171C357.601 55.5194 360.411 47.051 361.45 38.2801C361.556 37.6345 361.526 36.9739 361.361 36.3406C361.197 35.7073 360.902 35.1153 360.496 34.6027C360.089 34.0901 359.58 33.6681 359.001 33.364C358.421 33.0598 357.785 32.8801 357.132 32.8364ZM325.972 35.6146C324.929 35.5289 323.887 35.7972 323.015 36.3762C322.143 36.9551 321.492 37.8111 321.166 38.8057C320.082 42.044 318.359 45.0314 316.098 47.5907C315.498 48.2659 315.106 49.0998 314.969 49.9923C314.831 50.8848 314.954 51.798 315.323 52.6223C315.691 53.4467 316.29 54.1472 317.047 54.6398C317.804 55.1324 318.686 55.3963 319.589 55.3996C321.091 55.3996 322.368 54.7239 323.231 53.6727C326.225 50.2459 328.521 46.2668 329.989 41.9593C330.255 41.2733 330.357 40.5342 330.285 39.8017C330.214 39.0692 329.971 38.3638 329.576 37.7426C329.181 37.1213 328.646 36.6016 328.013 36.2254C327.381 35.8493 326.668 35.6271 325.934 35.5771L325.972 35.6146ZM341.402 35.8774C340.281 35.7987 339.17 36.1277 338.273 36.8039C337.376 37.48 336.754 38.4577 336.521 39.5566C335.631 43.5632 334.137 47.4114 332.091 50.9696C330.035 54.5172 327.453 57.7324 324.432 60.5054C323.951 60.9222 323.559 61.4326 323.281 62.0057C323.003 62.5787 322.844 63.2024 322.815 63.8386C322.786 64.4749 322.886 65.1105 323.111 65.7066C323.335 66.3028 323.678 66.8471 324.119 67.3063C324.561 67.7655 325.091 68.1301 325.678 68.3778C326.265 68.6255 326.896 68.7512 327.533 68.7471C328.17 68.7431 328.799 68.6095 329.383 68.3543C329.966 68.0992 330.492 67.7279 330.927 67.2631C334.579 63.8797 337.704 59.9697 340.2 55.6624C342.686 51.328 344.508 46.6458 345.607 41.7716C345.785 41.1032 345.814 40.4035 345.691 39.7227C345.568 39.0418 345.295 38.3966 344.893 37.8334C344.492 37.2701 343.97 36.8026 343.367 36.4645C342.763 36.1263 342.092 35.9258 341.402 35.8774ZM70.1177 41.0583C68.8731 41.0483 67.6755 41.5332 66.7884 42.4062C65.9012 43.2793 65.3973 44.469 65.3873 45.7136C65.3774 46.9582 65.8622 48.1558 66.7353 49.0429C67.6083 49.9301 68.798 50.434 70.0426 50.444C71.2662 50.5607 72.4982 50.5607 73.7218 50.444C74.3381 50.3898 74.9376 50.2147 75.4862 49.9287C76.0349 49.6428 76.5218 49.2516 76.9192 48.7775C77.3166 48.3034 77.6168 47.7556 77.8025 47.1655C77.9882 46.5754 78.0559 45.9544 78.0017 45.3382C77.9474 44.7219 77.7724 44.1223 77.4864 43.5737C77.2005 43.0251 76.8093 42.5382 76.3352 42.1408C75.861 41.7434 75.3133 41.4432 74.7232 41.2575C74.1331 41.0717 73.5121 41.0041 72.8959 41.0583C72.2094 41.1286 71.5175 41.1286 70.831 41.0583C70.5811 41.0382 70.33 41.0382 70.0802 41.0583H70.1177ZM-5.04292 42.8228C-6.02467 42.8306 -6.97924 43.1461 -7.77225 43.725C-8.56527 44.3038 -9.15678 45.1167 -9.46351 46.0493C-9.77024 46.982 -9.77675 47.9873 -9.48211 48.9238C-9.18748 49.8604 -8.60654 50.6809 -7.82108 51.2699C-1.70003 55.8122 3.42385 61.5622 7.23356 68.1642C11.0357 74.7753 13.4381 82.0976 14.2916 89.6762C14.4659 90.9108 15.1234 92.0257 16.1197 92.7755C17.1159 93.5254 18.3692 93.8487 19.6039 93.6745C20.8386 93.5002 21.9534 92.8427 22.7033 91.8464C23.4531 90.8502 23.7765 89.5968 23.6022 88.3622C22.5641 79.5913 19.754 71.1229 15.3428 63.4713C10.9246 55.8256 4.99793 49.1581 -2.07704 43.874C-2.92363 43.1817 -3.98693 42.8096 -5.08046 42.8228H-5.04292ZM65.9505 55.5873C64.7761 55.5804 63.6418 56.014 62.7715 56.8026C61.9012 57.5912 61.3583 58.6774 61.2498 59.8467C61.1414 61.0161 61.4753 62.1837 62.1857 63.1188C62.8961 64.054 63.9313 64.6888 65.087 64.8979C69.5489 65.7802 74.1404 65.7802 78.6024 64.8979C79.2112 64.7895 79.7928 64.5622 80.3138 64.2289C80.8348 63.8957 81.2851 63.4632 81.639 62.9559C81.9928 62.4487 82.2433 61.8767 82.3761 61.2727C82.5089 60.6686 82.5214 60.0444 82.413 59.4355C82.3045 58.8266 82.0772 58.245 81.7439 57.724C81.4107 57.203 80.9781 56.7527 80.4709 56.3989C79.9637 56.045 79.3917 55.7945 78.7877 55.6618C78.1836 55.5289 77.5594 55.5164 76.9505 55.6249C73.606 56.3065 70.1584 56.3065 66.8139 55.6249C66.529 55.5735 66.24 55.5484 65.9505 55.5498V55.5873ZM-10.2614 57.9901C-11.2042 57.9948 -12.1238 58.2834 -12.9003 58.8182C-13.6767 59.3531 -14.2741 60.1095 -14.6145 60.9888C-14.9548 61.8681 -15.0224 62.8295 -14.8085 63.7478C-14.5945 64.666 -14.1089 65.4986 -13.415 66.1369C-10.4115 68.915 -7.82109 72.1437 -5.75624 75.6727C-3.71093 79.2312 -2.21726 83.0793 -1.32619 87.0857C-1.12221 88.0073 -0.6451 88.8459 0.0428391 89.492C0.730778 90.1382 1.59758 90.5619 2.53005 90.7079C3.46253 90.8539 4.41735 90.7152 5.26983 90.3102C6.12231 89.9051 6.83285 89.2524 7.30865 88.4373C7.94688 87.311 8.05951 86.0345 7.79671 84.8332C6.68284 79.9699 4.84798 75.3005 2.353 70.9799C-0.140282 66.6597 -3.2659 62.7369 -6.92006 59.3416C-7.36044 58.9073 -7.88236 58.5642 -8.45578 58.3323C-9.02921 58.1003 -9.64284 57.984 -10.2614 57.9901ZM57.8788 69.1403C56.7881 69.2517 55.7709 69.7414 55.0037 70.5244C54.2364 71.3074 53.7675 72.3344 53.6783 73.427C53.5891 74.5197 53.8852 75.6091 54.5154 76.5062C55.1455 77.4033 56.0698 78.0515 57.1279 78.3383C61.9055 79.8235 66.8791 80.5828 71.8822 80.5908C76.8754 80.5908 81.831 79.84 86.599 78.3383C87.1906 78.1657 87.7424 77.8783 88.223 77.4925C88.7035 77.1067 89.1034 76.63 89.3997 76.0896C89.696 75.5492 89.883 74.9558 89.95 74.3432C90.017 73.7306 89.9627 73.1108 89.7901 72.5191C89.6176 71.9275 89.3302 71.3757 88.9443 70.8951C88.5585 70.4146 88.0818 70.0147 87.5414 69.7184C87.0011 69.4221 86.4077 69.2351 85.795 69.1681C85.1824 69.1011 84.5626 69.1554 83.971 69.328C80.0595 70.5615 75.9835 71.1944 71.8822 71.2051C67.7683 71.1982 63.6794 70.5653 59.7559 69.328C59.1493 69.139 58.5107 69.0751 57.8788 69.1403ZM-18.2204 71.2051C-19.1234 71.2085 -20.0063 71.4723 -20.7631 71.965C-21.5199 72.4576 -22.1185 73.1581 -22.4871 73.9825C-22.8556 74.8068 -22.9786 75.72 -22.8411 76.6125C-22.7036 77.505 -22.3115 78.3388 -21.7119 79.014C-19.4486 81.5715 -17.7248 84.5595 -16.6436 87.799C-16.3533 88.6486 -15.8254 89.397 -15.1225 89.9556C-14.4196 90.5141 -13.5712 90.8593 -12.6781 90.9502C-11.7849 91.0411 -10.8844 90.8739 -10.0834 90.4684C-9.28237 90.0629 -8.61449 89.4362 -8.15897 88.6625C-7.40812 87.3861 -7.33303 85.9219 -7.78355 84.6454C-9.26249 80.335 -11.571 76.3557 -14.5788 72.9321C-15.0194 72.3918 -15.5748 71.9565 -16.2048 71.6578C-16.8347 71.359 -17.5233 71.2044 -18.2204 71.2051ZM47.6671 81.1915C46.5863 81.2405 45.5556 81.6614 44.7495 82.3831C43.9433 83.1047 43.4113 84.0827 43.2435 85.1516C43.0757 86.2204 43.2823 87.3144 43.8284 88.2484C44.3746 89.1824 45.2267 89.899 46.2405 90.2769C54.338 93.7736 63.062 95.5874 71.8822 95.6079C80.7124 95.6033 89.4493 93.8022 97.5615 90.3144C98.1334 90.0827 98.654 89.7406 99.0937 89.3077C99.5334 88.8747 99.8835 88.3594 100.124 87.7912C100.365 87.2229 100.491 86.6129 100.496 85.9958C100.5 85.3788 100.384 84.7668 100.152 84.1949C99.9202 83.623 99.5781 83.1024 99.1452 82.6627C98.7122 82.223 98.1969 81.8729 97.6287 81.6323C97.0604 81.3918 96.4504 81.2655 95.8333 81.2607C95.2163 81.256 94.6044 81.3728 94.0324 81.6045C87.0429 84.6436 79.5039 86.2153 71.8822 86.2222C64.2606 86.2153 56.7215 84.6436 49.732 81.6045C49.0805 81.3263 48.3748 81.198 47.6671 81.2291V81.1915ZM-28.5072 82.3178C-29.3819 82.3108 -30.2411 82.5484 -30.988 83.0038C-31.7348 83.4592 -32.3395 84.1142 -32.7338 84.8951C-33.1281 85.6759 -33.2963 86.5514 -33.2195 87.4227C-33.1427 88.2941 -32.8238 89.1266 -32.299 89.8264C-31.9048 90.3804 -31.5653 90.9713 -31.2853 91.5909C-31.024 92.1504 -30.6551 92.6531 -30.1995 93.0701C-29.744 93.487 -29.2107 93.8102 -28.6303 94.0211C-28.0498 94.232 -27.4335 94.3266 -26.8166 94.2993C-26.1996 94.272 -25.594 94.1235 -25.0344 93.8622C-24.4749 93.6009 -23.9722 93.2319 -23.5553 92.7764C-23.1383 92.3208 -22.8151 91.7876 -22.6042 91.2072C-22.3933 90.6267 -22.2987 90.0104 -22.326 89.3934C-22.3533 88.7765 -22.5018 88.1709 -22.7631 87.6113C-23.2877 86.4913 -23.9162 85.4229 -24.6402 84.4202C-25.068 83.7873 -25.6439 83.2683 -26.3178 82.9085C-26.9917 82.5487 -27.7432 82.3588 -28.5072 82.3553V82.3178ZM409.767 91.1779C408.522 91.1779 407.329 91.6723 406.449 92.5524C405.569 93.4325 405.074 94.6261 405.074 95.8707C405.074 97.1154 405.569 98.309 406.449 99.1891C407.329 100.069 408.522 100.564 409.767 100.564V91.1779ZM-40.7461 91.1779V100.564C-39.5015 100.564 -38.3078 100.069 -37.4278 99.1891C-36.5477 98.309 -36.0532 97.1154 -36.0532 95.8707C-36.0532 94.6261 -36.5477 93.4325 -37.4278 92.5524C-38.3078 91.6723 -39.5015 91.1779 -40.7461 91.1779V91.1779ZM297.139 96.1335C288.321 96.1422 279.597 97.9432 271.497 101.427C270.913 101.647 270.378 101.982 269.925 102.411C269.472 102.841 269.108 103.357 268.857 103.928C268.605 104.5 268.471 105.116 268.46 105.74C268.45 106.365 268.564 106.985 268.796 107.564C269.029 108.144 269.374 108.672 269.813 109.116C270.252 109.56 270.775 109.912 271.352 110.152C271.929 110.392 272.547 110.514 273.172 110.511C273.796 110.509 274.414 110.381 274.989 110.137C281.978 107.097 289.517 105.525 297.139 105.519C304.76 105.519 312.306 107.134 319.289 110.175C319.863 110.404 320.477 110.518 321.096 110.51C321.714 110.502 322.325 110.372 322.893 110.128C323.461 109.884 323.976 109.53 324.408 109.087C324.839 108.644 325.179 108.121 325.409 107.547C325.638 106.972 325.752 106.358 325.744 105.74C325.736 105.122 325.606 104.511 325.362 103.943C325.118 103.374 324.764 102.86 324.321 102.428C323.878 101.996 323.355 101.656 322.781 101.427C314.678 97.9561 305.954 96.1679 297.139 96.1711V96.1335ZM395.726 97.3349C394.959 97.3908 394.218 97.6343 393.567 98.0441C392.916 98.4538 392.376 99.0172 391.994 99.6846C391.612 100.352 391.4 101.103 391.377 101.872C391.353 102.64 391.519 103.403 391.859 104.093C392.371 105.212 392.987 106.28 393.699 107.284C394.046 107.803 394.492 108.248 395.013 108.592C395.534 108.937 396.118 109.174 396.732 109.289C397.345 109.405 397.975 109.397 398.586 109.266C399.196 109.135 399.775 108.884 400.287 108.527C400.799 108.17 401.234 107.714 401.568 107.186C401.902 106.659 402.127 106.07 402.23 105.454C402.333 104.838 402.313 104.208 402.169 103.6C402.026 102.993 401.763 102.42 401.395 101.915C400.985 101.351 400.633 100.747 400.344 100.113C399.953 99.2317 399.3 98.4922 398.474 97.9951C397.647 97.498 396.688 97.2675 395.726 97.3349ZM349.736 97.9356C349.087 97.9842 348.454 98.1675 347.88 98.4739C347.305 98.7802 346.8 99.2028 346.397 99.7149C345.995 100.227 345.703 100.817 345.541 101.448C345.379 102.079 345.35 102.737 345.456 103.379C346.484 112.147 349.281 120.615 353.678 128.27C358.101 135.902 364.028 142.556 371.098 147.83C372.079 148.597 373.324 148.942 374.56 148.791C375.795 148.64 376.92 148.004 377.687 147.023C378.454 146.042 378.799 144.797 378.648 143.561C378.496 142.326 377.86 141.201 376.88 140.434C370.745 135.896 365.608 130.145 361.787 123.54C357.993 116.939 355.591 109.63 354.729 102.065C354.588 100.867 353.99 99.7694 353.06 99.0004C352.13 98.2313 350.94 97.85 349.736 97.9356ZM380.934 100.676C380.2 100.726 379.488 100.948 378.855 101.325C378.223 101.701 377.687 102.22 377.293 102.842C376.898 103.463 376.655 104.168 376.583 104.901C376.511 105.633 376.613 106.372 376.88 107.058C378.347 111.366 380.643 115.345 383.637 118.772C384.025 119.276 384.512 119.696 385.067 120.006C385.622 120.316 386.235 120.51 386.867 120.577C387.5 120.643 388.139 120.58 388.747 120.391C389.354 120.203 389.917 119.893 390.401 119.48C390.885 119.068 391.28 118.561 391.562 117.991C391.844 117.421 392.007 116.799 392.042 116.164C392.077 115.529 391.982 114.894 391.763 114.297C391.544 113.699 391.207 113.153 390.77 112.69C388.51 110.131 386.786 107.143 385.702 103.905C385.379 102.914 384.735 102.058 383.872 101.473C383.008 100.889 381.975 100.608 380.934 100.676ZM365.467 100.977C364.776 101.025 364.105 101.225 363.502 101.564C362.898 101.902 362.377 102.369 361.975 102.933C361.573 103.496 361.301 104.141 361.177 104.822C361.054 105.503 361.083 106.202 361.262 106.871C362.36 111.745 364.183 116.427 366.668 120.762C369.174 125.084 372.312 129.007 375.979 132.4C376.637 133.053 377.474 133.496 378.384 133.673C379.294 133.851 380.236 133.755 381.092 133.397C381.947 133.04 382.678 132.437 383.191 131.665C383.704 130.893 383.977 129.986 383.975 129.059C383.975 127.707 383.412 126.431 382.474 125.605C376.388 120.008 372.157 112.686 370.347 104.618C370.106 103.516 369.477 102.538 368.574 101.862C367.67 101.187 366.554 100.859 365.429 100.939L365.467 100.977ZM36.2166 107.884C35.0903 107.884 34.0391 108.26 33.2132 108.936C26.1382 114.22 20.2115 120.887 15.7933 128.533C11.383 136.185 8.57308 144.653 7.53391 153.424C7.44762 154.035 7.4826 154.658 7.63684 155.255C7.79109 155.853 8.06157 156.415 8.43284 156.908C8.80412 157.401 9.26892 157.817 9.80071 158.13C10.3325 158.444 10.9209 158.65 11.5322 158.736C12.1436 158.822 12.7659 158.787 13.3637 158.633C13.9616 158.479 14.5231 158.208 15.0164 157.837C15.5097 157.466 15.9251 157.001 16.2387 156.469C16.5524 155.938 16.7582 155.349 16.8445 154.738C17.7001 147.16 20.1023 139.838 23.9025 133.226C27.7223 126.62 32.8594 120.869 38.9947 116.332C39.7802 115.743 40.3611 114.922 40.6558 113.985C40.9504 113.049 40.9439 112.044 40.6372 111.111C40.3304 110.178 39.7389 109.365 38.9459 108.787C38.1529 108.208 37.1983 107.892 36.2166 107.884ZM297.139 111.151C292.146 111.151 287.19 111.902 282.422 113.403C281.83 113.576 281.279 113.863 280.798 114.249C280.317 114.635 279.918 115.112 279.621 115.652C279.325 116.192 279.138 116.786 279.071 117.398C279.004 118.011 279.058 118.631 279.231 119.222C279.403 119.814 279.691 120.366 280.077 120.846C280.463 121.327 280.939 121.727 281.48 122.023C282.02 122.319 282.613 122.506 283.226 122.573C283.839 122.64 284.458 122.586 285.05 122.413C288.961 121.179 293.037 120.546 297.139 120.536C301.269 120.536 305.323 121.212 309.228 122.413C310.131 122.702 311.101 122.709 312.009 122.435C312.917 122.162 313.721 121.619 314.314 120.879C314.908 120.139 315.263 119.237 315.334 118.291C315.404 117.345 315.186 116.4 314.709 115.581C314.084 114.505 313.058 113.722 311.856 113.403C307.09 111.922 302.129 111.162 297.139 111.151ZM41.3975 123.014C40.121 123.014 38.9197 123.54 38.0937 124.403C34.4262 127.796 31.2879 131.719 28.7831 136.041C26.3002 140.364 24.478 145.033 23.377 149.895C23.229 150.494 23.2006 151.116 23.2932 151.726C23.3857 152.336 23.5976 152.922 23.9166 153.45C24.2356 153.978 24.6554 154.438 25.1523 154.804C25.6491 155.17 26.2131 155.435 26.8121 155.583C27.4111 155.73 28.0334 155.759 28.6434 155.666C29.2535 155.574 29.8393 155.362 30.3674 155.043C30.8956 154.724 31.3557 154.304 31.7216 153.807C32.0875 153.31 32.3519 152.746 32.4998 152.147C33.3904 148.141 34.8841 144.293 36.9299 140.734C38.9833 137.174 41.5657 133.946 44.5886 131.161C45.2849 130.52 45.7714 129.685 45.9842 128.763C46.1971 127.841 46.1263 126.876 45.7812 125.995C45.4362 125.115 44.833 124.358 44.0507 123.826C43.2684 123.294 42.3435 123.011 41.3975 123.014ZM297.139 126.168C294.886 126.168 292.596 126.393 290.381 126.844C289.42 126.992 288.528 127.436 287.83 128.114C287.132 128.792 286.662 129.669 286.485 130.626C286.307 131.582 286.432 132.57 286.841 133.453C287.249 134.336 287.923 135.07 288.767 135.553C289.818 136.154 290.982 136.304 292.071 136.079C295.415 135.397 298.863 135.397 302.207 136.079C302.814 136.192 303.436 136.185 304.04 136.058C304.644 135.931 305.216 135.686 305.725 135.337C306.234 134.988 306.67 134.543 307.006 134.026C307.343 133.509 307.575 132.931 307.688 132.325C307.802 131.718 307.795 131.096 307.667 130.492C307.54 129.888 307.295 129.316 306.946 128.807C306.598 128.298 306.152 127.862 305.635 127.525C305.119 127.189 304.54 126.957 303.934 126.844C301.697 126.396 299.421 126.17 297.139 126.168ZM49.3941 136.304C47.9299 136.304 46.6159 136.943 45.79 137.994C42.7914 141.432 40.4956 145.424 39.0323 149.745C38.7817 150.333 38.6541 150.967 38.6573 151.606C38.6605 152.246 38.7944 152.878 39.0508 153.464C39.3073 154.05 39.6808 154.578 40.1485 155.014C40.6162 155.451 41.1682 155.787 41.7705 156.002C42.3728 156.217 43.0128 156.307 43.6512 156.266C44.2895 156.225 44.9128 156.054 45.4826 155.763C46.0524 155.473 46.5568 155.069 46.9647 154.576C47.3727 154.083 47.6756 153.512 47.8548 152.898C48.9342 149.647 50.658 146.646 52.9231 144.076C53.5248 143.398 53.9175 142.561 54.0537 141.665C54.1899 140.769 54.0638 139.853 53.6906 139.027C53.3174 138.201 52.7131 137.501 51.9507 137.011C51.1882 136.521 50.3003 136.263 49.3941 136.267V136.304ZM297.139 141.147C296.538 141.147 295.9 141.147 295.299 141.26C294.678 141.305 294.073 141.473 293.518 141.755C292.963 142.036 292.469 142.425 292.066 142.899C291.662 143.373 291.357 143.923 291.168 144.516C290.979 145.109 290.91 145.733 290.965 146.353C291.02 146.973 291.197 147.576 291.487 148.127C291.777 148.678 292.174 149.165 292.654 149.561C293.135 149.957 293.689 150.254 294.285 150.433C294.88 150.613 295.506 150.672 296.125 150.608C296.812 150.54 297.503 150.54 298.19 150.608C298.806 150.66 299.427 150.59 300.016 150.402C300.605 150.214 301.151 149.911 301.624 149.512C302.096 149.113 302.485 148.625 302.769 148.075C303.053 147.526 303.225 146.926 303.277 146.309C303.329 145.693 303.259 145.073 303.071 144.484C302.883 143.894 302.58 143.348 302.181 142.876C301.782 142.403 301.294 142.014 300.744 141.73C300.195 141.447 299.595 141.274 298.978 141.222C298.367 141.169 297.753 141.144 297.139 141.147ZM59.6808 147.417C58.0665 147.417 56.6774 148.243 55.7764 149.482C55.0788 150.488 54.4755 151.556 53.9743 152.673C53.6721 153.235 53.4877 153.852 53.4323 154.488C53.3768 155.123 53.4515 155.764 53.6518 156.369C53.8522 156.975 54.1739 157.533 54.5973 158.011C55.0207 158.488 55.537 158.874 56.1146 159.144C56.6922 159.415 57.3189 159.566 57.9565 159.586C58.5941 159.607 59.2292 159.497 59.823 159.264C60.4168 159.03 60.9568 158.679 61.41 158.23C61.8632 157.781 62.2202 157.244 62.459 156.652C62.7481 156.018 63.1003 155.414 63.5102 154.85C64.0155 154.148 64.3168 153.32 64.3808 152.457C64.4447 151.594 64.2689 150.73 63.8726 149.961C63.4763 149.191 62.8751 148.547 62.1353 148.098C61.3956 147.649 60.5461 147.413 59.6808 147.417ZM71.8822 156.24C70.6376 156.24 69.4439 156.734 68.5639 157.614C67.6838 158.494 67.1894 159.688 67.1894 160.932C67.1894 162.177 67.6838 163.371 68.5639 164.251C69.4439 165.131 70.6376 165.625 71.8822 165.625C73.1268 165.625 74.3205 165.131 75.2006 164.251C76.0806 163.371 76.5751 162.177 76.5751 160.932C76.5751 159.688 76.0806 158.494 75.2006 157.614C74.3205 156.734 73.1268 156.24 71.8822 156.24ZM297.477 156.24C296.232 156.155 295.005 156.568 294.065 157.388C293.125 158.209 292.549 159.369 292.465 160.613C292.38 161.858 292.793 163.085 293.614 164.025C294.434 164.965 295.594 165.541 296.838 165.625C297.455 165.667 298.073 165.587 298.659 165.39C299.244 165.193 299.785 164.882 300.25 164.476C300.716 164.07 301.097 163.576 301.371 163.023C301.646 162.47 301.809 161.868 301.85 161.251C301.892 160.635 301.812 160.017 301.615 159.431C301.418 158.846 301.108 158.305 300.702 157.84C300.295 157.374 299.802 156.993 299.248 156.719C298.695 156.444 298.093 156.281 297.477 156.24ZM85.8857 162.397C84.929 162.332 83.9757 162.564 83.1559 163.061C82.3361 163.558 81.6898 164.296 81.3054 165.175C81.0161 165.809 80.6639 166.413 80.2542 166.977C79.8867 167.481 79.6235 168.054 79.4802 168.662C79.3368 169.27 79.3161 169.9 79.4194 170.516C79.5226 171.131 79.7477 171.72 80.0814 172.248C80.4151 172.776 80.8507 173.231 81.3628 173.588C81.8748 173.946 82.453 174.197 83.0634 174.328C83.6739 174.459 84.3043 174.467 84.9178 174.351C85.5313 174.235 86.1156 173.998 86.6363 173.654C87.1571 173.309 87.6038 172.865 87.9505 172.345C88.6712 171.34 89.2995 170.272 89.8277 169.154C90.1698 168.459 90.3345 167.69 90.3072 166.916C90.2798 166.142 90.0612 165.386 89.6708 164.717C89.2805 164.048 88.7305 163.486 88.0701 163.081C87.4096 162.676 86.6591 162.441 85.8857 162.397ZM131.876 162.96C130.67 162.875 129.479 163.263 128.555 164.041C127.63 164.818 127.044 165.925 126.92 167.127C126.053 174.708 123.638 182.03 119.824 188.639C116.015 195.241 110.891 200.991 104.77 205.533C104.284 205.913 103.878 206.384 103.575 206.921C103.271 207.457 103.076 208.049 103.002 208.66C102.927 209.272 102.973 209.893 103.138 210.487C103.303 211.081 103.583 211.636 103.962 212.122C104.342 212.608 104.814 213.014 105.35 213.317C105.887 213.62 106.478 213.815 107.09 213.89C107.702 213.965 108.322 213.919 108.916 213.754C109.51 213.589 110.066 213.309 110.551 212.929C117.626 207.645 123.553 200.977 127.971 193.332C132.381 185.68 135.191 177.212 136.231 168.441C136.343 167.79 136.316 167.122 136.152 166.482C135.988 165.841 135.691 165.243 135.28 164.725C134.869 164.208 134.353 163.783 133.766 163.479C133.18 163.175 132.535 162.998 131.876 162.96ZM100.715 165.738C99.6672 165.654 98.6219 165.928 97.7494 166.514C96.8768 167.101 96.2284 167.965 95.9096 168.967C94.8266 172.205 93.1029 175.193 90.8413 177.752C90.405 178.214 90.0673 178.761 89.8487 179.358C89.6301 179.955 89.5353 180.591 89.5698 181.226C89.6044 181.861 89.7677 182.482 90.0499 183.053C90.332 183.623 90.727 184.129 91.211 184.542C91.695 184.955 92.2578 185.265 92.8652 185.453C93.4727 185.641 94.1121 185.704 94.7447 185.638C95.3772 185.572 95.9897 185.378 96.5449 185.068C97.1001 184.757 97.5865 184.337 97.9744 183.833C100.972 180.409 103.268 176.429 104.732 172.12C104.999 171.434 105.1 170.695 105.029 169.962C104.957 169.23 104.714 168.525 104.319 167.903C103.925 167.282 103.389 166.762 102.757 166.386C102.124 166.01 101.412 165.788 100.678 165.738H100.715ZM116.183 166.038C115.062 165.959 113.951 166.288 113.054 166.965C112.157 167.641 111.535 168.618 111.302 169.717C110.388 173.728 108.869 177.577 106.797 181.13C104.752 184.675 102.183 187.89 99.1758 190.666C98.4818 191.305 97.9962 192.137 97.7823 193.055C97.5683 193.974 97.6359 194.935 97.9763 195.814C98.3167 196.694 98.914 197.45 99.6905 197.985C100.467 198.52 101.387 198.808 102.329 198.813C103.643 198.813 104.807 198.287 105.671 197.461C109.324 194.066 112.45 190.143 114.944 185.823C117.459 181.468 119.261 176.813 120.387 171.932C120.566 171.264 120.595 170.564 120.472 169.883C120.349 169.203 120.076 168.557 119.674 167.994C119.273 167.431 118.751 166.963 118.148 166.625C117.544 166.287 116.873 166.087 116.183 166.038ZM295.374 171.182C294.758 171.177 294.147 171.293 293.576 171.524C293.004 171.756 292.484 172.097 292.045 172.529C291.606 172.962 291.256 173.476 291.016 174.044C290.775 174.611 290.649 175.221 290.644 175.837C290.639 176.453 290.755 177.064 290.987 177.636C291.218 178.207 291.56 178.727 291.992 179.166C292.424 179.605 292.939 179.955 293.506 180.196C294.074 180.436 294.683 180.562 295.299 180.567C296.523 180.683 297.755 180.683 298.978 180.567C299.595 180.513 300.194 180.338 300.743 180.052C301.291 179.766 301.778 179.375 302.176 178.901C302.573 178.427 302.873 177.879 303.059 177.289C303.245 176.699 303.312 176.078 303.258 175.461C303.204 174.845 303.029 174.246 302.743 173.697C302.457 173.148 302.066 172.661 301.592 172.264C301.118 171.867 300.57 171.566 299.98 171.381C299.39 171.195 298.769 171.127 298.152 171.182C297.466 171.252 296.774 171.252 296.088 171.182C295.838 171.161 295.587 171.161 295.337 171.182H295.374ZM220.214 172.946C219.222 172.943 218.255 173.255 217.452 173.835C216.648 174.416 216.049 175.236 215.741 176.179C215.432 177.121 215.43 178.137 215.734 179.08C216.039 180.024 216.634 180.847 217.436 181.431C223.543 185.977 228.654 191.727 232.453 198.325C236.27 204.922 238.698 212.23 239.586 219.799C239.634 220.44 239.813 221.063 240.112 221.631C240.412 222.199 240.824 222.7 241.324 223.103C241.825 223.505 242.402 223.8 243.021 223.971C243.641 224.141 244.288 224.182 244.924 224.092C245.559 224.002 246.17 223.782 246.717 223.447C247.265 223.111 247.737 222.667 248.106 222.142C248.475 221.616 248.732 221.02 248.862 220.392C248.991 219.763 248.99 219.114 248.859 218.485C247.821 209.715 245.011 201.246 240.599 193.595C236.177 185.962 230.251 179.308 223.18 174.035C222.338 173.329 221.274 172.943 220.176 172.946H220.214ZM291.207 185.711C290.033 185.704 288.898 186.137 288.028 186.926C287.158 187.714 286.615 188.801 286.506 189.97C286.398 191.139 286.732 192.307 287.442 193.242C288.153 194.177 289.188 194.812 290.344 195.021C294.806 195.902 299.397 195.902 303.859 195.021C304.479 194.928 305.074 194.711 305.61 194.384C306.145 194.057 306.609 193.626 306.974 193.116C307.34 192.606 307.6 192.028 307.738 191.417C307.877 190.805 307.891 190.172 307.781 189.554C307.67 188.937 307.437 188.348 307.095 187.822C306.753 187.296 306.309 186.844 305.79 186.493C305.27 186.142 304.685 185.898 304.07 185.777C303.455 185.655 302.821 185.658 302.207 185.786C298.863 186.467 295.415 186.467 292.071 185.786C291.787 185.721 291.498 185.684 291.207 185.673V185.711ZM214.995 188.113C214.049 188.11 213.124 188.394 212.342 188.926C211.56 189.458 210.957 190.214 210.611 191.095C210.266 191.975 210.196 192.94 210.408 193.862C210.621 194.784 211.108 195.62 211.804 196.26C214.808 199.038 217.436 202.267 219.463 205.796C221.525 209.364 223.032 213.225 223.93 217.247C224.134 218.168 224.612 219.007 225.299 219.653C225.987 220.299 226.854 220.723 227.787 220.869C228.719 221.015 229.674 220.876 230.526 220.471C231.379 220.066 232.089 219.413 232.565 218.598C233.203 217.472 233.316 216.195 233.053 215.031C231.943 210.155 230.108 205.473 227.61 201.141C225.116 196.821 221.99 192.898 218.337 189.502C217.896 189.068 217.374 188.725 216.801 188.493C216.227 188.261 215.614 188.145 214.995 188.151V188.113ZM283.135 199.264C282.045 199.375 281.028 199.865 280.26 200.648C279.493 201.431 279.024 202.458 278.935 203.55C278.846 204.643 279.142 205.732 279.772 206.629C280.402 207.527 281.326 208.175 282.384 208.462C287.162 209.947 292.136 210.707 297.139 210.714C302.132 210.714 307.088 209.963 311.818 208.462C313.013 208.113 314.02 207.304 314.619 206.213C315.217 205.122 315.358 203.837 315.009 202.642C314.661 201.448 313.852 200.44 312.761 199.842C311.669 199.243 310.385 199.103 309.19 199.451C305.279 200.685 301.203 201.318 297.101 201.328C293.009 201.328 288.917 200.69 285.012 199.451C284.406 199.262 283.767 199.198 283.135 199.264ZM207.036 201.366C206.133 201.369 205.25 201.633 204.494 202.126C203.737 202.618 203.138 203.319 202.77 204.143C202.401 204.968 202.278 205.881 202.416 206.773C202.553 207.666 202.945 208.5 203.545 209.175C205.806 211.734 207.53 214.721 208.613 217.96C208.903 218.809 209.431 219.558 210.134 220.116C210.837 220.675 211.685 221.02 212.579 221.111C213.472 221.202 214.372 221.035 215.173 220.629C215.974 220.224 216.642 219.597 217.098 218.823C217.848 217.584 217.924 216.12 217.473 214.844C216.001 210.519 213.692 206.526 210.678 203.093C210.237 202.553 209.682 202.117 209.052 201.819C208.422 201.52 207.733 201.365 207.036 201.366ZM272.924 211.352C271.843 211.401 270.812 211.822 270.006 212.544C269.2 213.265 268.668 214.244 268.5 215.312C268.332 216.381 268.539 217.475 269.085 218.409C269.631 219.343 270.483 220.06 271.497 220.438C279.597 223.921 288.321 225.722 297.139 225.731C305.969 225.728 314.706 223.926 322.818 220.438C323.39 220.206 323.911 219.864 324.35 219.431C324.79 218.998 325.14 218.483 325.381 217.914C325.621 217.346 325.747 216.736 325.752 216.119C325.757 215.502 325.64 214.89 325.409 214.318C325.177 213.746 324.835 213.226 324.402 212.786C323.969 212.346 323.454 211.996 322.885 211.756C322.317 211.515 321.707 211.389 321.09 211.384C320.473 211.379 319.861 211.496 319.289 211.728C312.3 214.768 304.761 216.34 297.139 216.345C289.555 216.345 281.972 214.769 275.026 211.728C274.363 211.444 273.644 211.316 272.924 211.352ZM196.749 212.516C195.887 212.519 195.043 212.76 194.308 213.212C193.574 213.663 192.978 214.309 192.587 215.077C192.195 215.844 192.022 216.706 192.088 217.565C192.153 218.425 192.454 219.25 192.958 219.95C193.353 220.516 193.692 221.12 193.971 221.752C194.32 222.548 194.883 223.232 195.597 223.728C196.312 224.223 197.15 224.51 198.018 224.557C198.887 224.603 199.751 224.408 200.515 223.992C201.278 223.576 201.911 222.957 202.343 222.202C203.132 220.776 203.132 219.124 202.493 217.772C201.965 216.666 201.337 215.61 200.616 214.619C200.193 213.979 199.619 213.452 198.945 213.086C198.271 212.719 197.517 212.524 196.749 212.516ZM184.21 221.301C183.018 221.387 181.904 221.924 181.095 222.803C180.286 223.682 179.843 224.837 179.855 226.031H189.241C189.248 225.383 189.12 224.739 188.866 224.142C188.611 223.545 188.236 223.007 187.763 222.563C187.29 222.118 186.73 221.777 186.119 221.56C185.507 221.342 184.857 221.254 184.21 221.301Z" fill="white"/>
<path d="M29.6466 -34.29C29.6466 -33.0454 30.141 -31.8518 31.0211 -30.9717C31.9012 -30.0916 33.0948 -29.5972 34.3394 -29.5972C35.5841 -29.5972 36.7777 -30.0916 37.6578 -30.9717C38.5379 -31.8518 39.0323 -33.0454 39.0323 -34.29H29.6466ZM329.989 -34.29C329.989 -33.0454 330.483 -31.8518 331.363 -30.9717C332.243 -30.0916 333.437 -29.5972 334.682 -29.5972C335.926 -29.5972 337.12 -30.0916 338 -30.9717C338.88 -31.8518 339.374 -33.0454 339.374 -34.29H329.989ZM222.504 -34.0272C210.988 -34.123 199.656 -31.1282 189.691 -25.3549C179.857 -19.6465 171.691 -11.4605 166.006 -1.61271C160.321 8.23509 157.317 19.4008 157.292 30.7716C157.282 40.8736 159.636 50.8377 164.167 59.8667C168.698 68.8957 175.279 76.7388 183.384 82.7683C183.87 83.1479 184.425 83.4282 185.019 83.5931C185.613 83.758 186.234 83.8043 186.846 83.7293C187.458 83.6544 188.049 83.4596 188.585 83.1562C189.122 82.8529 189.593 82.4468 189.973 81.9612C190.353 81.4755 190.633 80.9199 190.798 80.326C190.963 79.732 191.009 79.1114 190.934 78.4996C190.859 77.8878 190.664 77.2967 190.361 76.7601C190.058 76.2236 189.651 75.752 189.166 75.3724C182.183 70.2217 176.51 63.5012 172.603 55.7536C168.697 48.006 166.667 39.4483 166.678 30.7716C166.698 21.0544 169.263 11.512 174.118 3.09419C178.972 -5.32361 185.947 -12.3233 194.347 -17.2081C201.856 -21.5518 210.282 -24.0667 218.943 -24.5494C227.605 -25.032 236.258 -23.4688 244.204 -19.9862C245.113 -19.5857 246.126 -19.484 247.096 -19.696C248.067 -19.9079 248.946 -20.4224 249.605 -21.1655C250.265 -21.9086 250.671 -22.8418 250.767 -23.8308C250.862 -24.8198 250.641 -25.8135 250.135 -26.6689C249.582 -27.6074 248.719 -28.3242 247.695 -28.6962C239.748 -32.1278 231.197 -33.9402 222.541 -34.0272H222.504ZM-3.65384 -34.0272C-12.3247 -33.9333 -20.8893 -32.1081 -28.845 -28.6586C-29.4877 -28.4873 -30.0866 -28.1812 -30.6021 -27.7608C-31.1175 -27.3404 -31.5377 -26.8152 -31.8348 -26.2201C-32.1318 -25.625 -32.299 -24.9735 -32.3252 -24.3089C-32.3514 -23.6443 -32.2359 -22.9817 -31.9866 -22.365C-31.7373 -21.7484 -31.3597 -21.1918 -30.8789 -20.7322C-30.3981 -20.2725 -29.8252 -19.9203 -29.1979 -19.6989C-28.5707 -19.4775 -27.9036 -19.392 -27.2408 -19.448C-26.578 -19.504 -25.9347 -19.7003 -25.3536 -20.0238C-17.4134 -23.5001 -8.76689 -25.06 -0.112537 -24.5774C8.54182 -24.0948 16.9613 -21.5832 24.4657 -17.2456C32.8729 -12.3655 39.8547 -5.36793 44.7159 3.0502C49.5771 11.4683 52.1479 21.0132 52.1723 30.734C52.1829 39.4108 50.1531 47.9684 46.2466 55.716C42.3402 63.4637 36.6667 70.1842 29.6841 75.3349C29.1985 75.7145 28.7924 76.186 28.489 76.7226C28.1857 77.2592 27.9909 77.8502 27.916 78.4621C27.841 79.0739 27.8873 79.6945 28.0522 80.2884C28.2171 80.8823 28.4973 81.438 28.877 81.9236C29.2566 82.4092 29.7281 82.8153 30.2647 83.1187C30.8013 83.4221 31.3923 83.6168 32.0042 83.6918C32.616 83.7667 33.2366 83.7204 33.8305 83.5555C34.4245 83.3907 34.9801 83.1104 35.4657 82.7308C43.571 76.7012 50.1523 68.8581 54.6831 59.8292C59.2139 50.8002 61.5683 40.836 61.5579 30.734C61.5134 19.3824 58.4995 8.23991 52.8158 -1.58644C47.132 -11.4128 38.9762 -19.5811 29.1585 -25.2798C19.2009 -31.0793 7.86934 -34.1002 -3.65384 -34.0272ZM320.641 -32.7883C319.874 -32.7324 319.132 -32.4889 318.481 -32.0792C317.831 -31.6695 317.291 -31.1061 316.909 -30.4386C316.527 -29.7712 316.315 -29.0201 316.291 -28.2515C316.268 -27.4828 316.433 -26.7202 316.774 -26.0306C318.465 -22.3136 321.274 -19.2165 324.808 -17.1705C327.807 -15.4479 331.204 -14.5415 334.663 -14.5415C338.121 -14.5415 341.519 -15.4479 344.518 -17.1705C348.066 -19.2105 350.888 -22.3082 352.589 -26.0306C353.117 -27.1607 353.174 -28.4542 352.748 -29.6265C352.322 -30.7987 351.448 -31.7538 350.318 -32.2815C349.188 -32.8092 347.895 -32.8664 346.722 -32.4404C345.55 -32.0145 344.595 -31.1403 344.067 -30.0102C343.232 -28.2255 341.906 -26.7158 340.244 -25.6582C338.581 -24.6005 336.652 -24.0388 334.682 -24.0388C332.711 -24.0388 330.782 -24.6005 329.119 -25.6582C327.457 -26.7158 326.131 -28.2255 325.296 -30.0102C324.903 -30.8979 324.244 -31.6419 323.41 -32.1395C322.576 -32.637 321.609 -32.8637 320.641 -32.7883ZM274.651 -32.2627C273.994 -32.2197 273.354 -32.0391 272.772 -31.7326C272.19 -31.4261 271.678 -31.0006 271.271 -30.4837C270.864 -29.9669 270.57 -29.3701 270.409 -28.7323C270.247 -28.0945 270.221 -27.4299 270.333 -26.7815C271.492 -16.7457 274.986 -7.12092 280.534 1.32177C286.082 9.76445 293.53 16.7903 302.282 21.8364C312.133 27.5021 323.299 30.4838 334.663 30.4838C346.027 30.4838 357.192 27.5021 367.043 21.8364C375.795 16.7903 383.244 9.76445 388.792 1.32177C394.34 -7.12092 397.833 -16.7457 398.992 -26.7815C399.124 -27.41 399.125 -28.0587 398.995 -28.6876C398.866 -29.3165 398.609 -29.9121 398.24 -30.4376C397.871 -30.9632 397.398 -31.4074 396.851 -31.7429C396.303 -32.0784 395.693 -32.298 395.057 -32.388C394.421 -32.4781 393.774 -32.4368 393.155 -32.2666C392.536 -32.0964 391.958 -31.801 391.458 -31.3987C390.958 -30.9963 390.545 -30.4955 390.246 -29.9274C389.947 -29.3592 389.768 -28.7357 389.719 -28.0955C388.753 -19.4726 385.772 -11.1978 381.018 -3.93927C376.263 3.31924 369.869 9.35807 362.351 13.6896C353.926 18.5315 344.379 21.0796 334.663 21.0796C324.946 21.0796 315.399 18.5315 306.975 13.6896C299.464 9.35373 293.077 3.313 288.329 -3.94525C283.581 -11.2035 280.606 -19.476 279.644 -28.0955C279.502 -29.2938 278.904 -30.3914 277.974 -31.1604C277.045 -31.9294 275.854 -32.3108 274.651 -32.2252V-32.2627ZM305.849 -29.4846C305.114 -29.4345 304.402 -29.2124 303.77 -28.8362C303.137 -28.46 302.602 -27.9403 302.207 -27.3191C301.812 -26.6978 301.569 -25.9924 301.498 -25.2599C301.426 -24.5274 301.527 -23.7883 301.794 -23.1023C304.503 -15.1461 310.014 -8.44723 317.299 -4.25582C322.582 -1.21887 328.569 0.379368 334.663 0.379368C340.756 0.379368 346.743 -1.21887 352.026 -4.25582C359.325 -8.46558 364.838 -15.1932 367.531 -23.1774C367.794 -23.7689 367.932 -24.4085 367.936 -25.0559C367.94 -25.7032 367.809 -26.3443 367.553 -26.9389C367.297 -27.5335 366.921 -28.0687 366.448 -28.5108C365.975 -28.953 365.416 -29.2925 364.806 -29.5081C364.195 -29.7237 363.547 -29.8107 362.901 -29.7635C362.256 -29.7164 361.627 -29.5362 361.054 -29.2343C360.482 -28.9324 359.978 -28.5153 359.574 -28.0091C359.17 -27.503 358.876 -26.9189 358.709 -26.2934C356.746 -20.4266 352.698 -15.4841 347.333 -12.4026C343.479 -10.1858 339.11 -9.01908 334.663 -9.01908C330.216 -9.01908 325.847 -10.1858 321.992 -12.4026C316.628 -15.4841 312.58 -20.4266 310.617 -26.2934C310.294 -27.2848 309.65 -28.1404 308.786 -28.725C307.923 -29.3097 306.889 -29.5901 305.849 -29.5221V-29.4846ZM290.381 -29.1842C289.691 -29.1358 289.02 -28.9353 288.416 -28.5971C287.813 -28.259 287.291 -27.7915 286.889 -27.2283C286.488 -26.665 286.215 -26.0198 286.092 -25.339C285.969 -24.6581 285.997 -23.9584 286.176 -23.29C287.685 -16.5951 290.566 -10.2859 294.637 -4.76094C298.708 0.764019 303.881 5.38465 309.828 8.80906C317.392 13.1498 325.961 15.4338 334.682 15.4338C343.402 15.4338 351.971 13.1498 359.535 8.80906C365.482 5.38465 370.655 0.764019 374.726 -4.76094C378.797 -10.2859 381.678 -16.5951 383.187 -23.29C383.486 -24.4998 383.291 -25.7787 382.647 -26.8453C382.003 -27.912 380.961 -28.679 379.752 -28.9777C378.542 -29.2764 377.263 -29.0823 376.196 -28.4381C375.13 -27.7939 374.363 -26.7523 374.064 -25.5426C372.856 -20.0792 370.522 -14.9275 367.213 -10.4157C363.903 -5.90397 359.69 -2.13115 354.842 0.662281C348.703 4.19349 341.745 6.05193 334.663 6.05193C327.581 6.05193 320.623 4.19349 314.484 0.662281C309.639 -2.12704 305.429 -5.89401 302.12 -10.399C298.81 -14.904 296.475 -20.0484 295.262 -25.505C295.022 -26.6002 294.398 -27.5732 293.502 -28.2481C292.607 -28.923 291.5 -29.255 290.381 -29.1842ZM407.89 -22.2764C406.898 -22.2792 405.932 -21.9679 405.128 -21.3871C404.324 -20.8064 403.725 -19.9861 403.417 -19.0438C403.108 -18.1016 403.106 -17.0858 403.411 -16.1423C403.715 -15.1987 404.311 -14.3758 405.112 -13.7917C406.726 -12.5903 408.303 -11.3139 409.767 -9.92478V-21.9009C409.204 -22.1637 408.566 -22.3139 407.89 -22.3139V-22.2764ZM111.302 -22.2764C110.176 -22.2764 109.125 -21.9009 108.299 -21.1876C100.199 -15.1618 93.6203 -7.32477 89.0898 1.69722C84.5592 10.7192 82.202 20.6759 82.2065 30.7716C82.2276 42.1387 85.2264 53.3019 90.9044 63.1494C96.5823 72.9969 104.741 81.185 114.568 86.898C123.306 91.957 133.108 94.8979 143.187 95.4846C153.267 96.0714 163.344 94.2878 172.609 90.2769C173.181 90.0452 173.702 89.7031 174.142 89.2701C174.581 88.8372 174.932 88.3219 175.172 87.7536C175.413 87.1854 175.539 86.5753 175.544 85.9583C175.548 85.3412 175.432 84.7293 175.2 84.1574C174.968 83.5855 174.626 83.0648 174.193 82.6251C173.76 82.1854 173.245 81.8353 172.677 81.5948C172.108 81.3542 171.498 81.228 170.881 81.2232C170.264 81.2184 169.652 81.3352 169.08 81.5669C161.137 85.0377 152.489 86.5912 143.835 86.1021C135.181 85.613 126.763 83.0949 119.261 78.7512C110.861 73.8664 103.887 66.8668 99.0322 58.449C94.1778 50.0312 91.6127 40.4888 91.5922 30.7716C91.5874 22.1012 93.6201 13.551 97.5262 5.81036C101.432 -1.93027 107.103 -8.64474 114.08 -13.7917C114.884 -14.3777 115.481 -15.204 115.785 -16.1512C116.088 -17.0985 116.083 -18.1178 115.77 -19.0619C115.456 -20.006 114.851 -20.8261 114.041 -21.4039C113.232 -21.9817 112.259 -22.2872 111.265 -22.2764H111.302ZM-40.7461 -21.8634V-9.88724C-35.1147 -4.70279 -30.6217 1.59501 -27.552 8.60698C-24.4822 15.619 -22.9026 23.1922 -22.9133 30.8467C-22.9133 46.4269 -29.5583 61.1812 -40.7461 71.5806V83.6693C-32.3426 77.6567 -25.4912 69.73 -20.7582 60.5448C-16.0252 51.3596 -13.5467 41.1796 -13.5276 30.8467C-13.5172 20.7447 -15.8717 10.7805 -20.4024 1.75153C-24.9332 -7.27744 -31.5146 -15.1205 -39.6198 -21.1501C-39.9617 -21.427 -40.3408 -21.6545 -40.7461 -21.8258V-21.8634ZM221.941 -18.9726C213.24 -18.9761 204.693 -16.684 197.162 -12.3275C189.616 -7.94016 183.351 -1.65262 178.991 5.90906C174.63 13.4707 172.327 22.0427 172.309 30.7716C172.302 37.6322 173.716 44.42 176.462 50.707C179.208 56.994 183.227 62.644 188.265 67.3007C188.921 67.9512 189.755 68.3935 190.661 68.5722C191.568 68.7509 192.507 68.658 193.361 68.3052C194.215 67.9524 194.945 67.3554 195.461 66.589C195.977 65.8225 196.256 64.9209 196.261 63.9969C196.261 62.6078 195.698 61.3689 194.76 60.543C190.633 56.7607 187.34 52.1598 185.09 47.0339C182.841 41.9079 181.684 36.3694 181.695 30.7716C181.712 23.6927 183.582 16.7415 187.118 10.6095C190.655 4.47752 195.736 -0.621624 201.855 -4.18074C206.693 -6.98818 212.063 -8.75545 217.622 -9.36957C223.182 -9.98369 228.808 -9.43116 234.142 -7.7473C235.337 -7.39881 236.621 -7.53923 237.713 -8.13769C238.804 -8.73614 239.613 -9.7436 239.961 -10.9384C240.31 -12.1333 240.169 -13.4176 239.571 -14.5089C238.972 -15.6002 237.965 -16.4091 236.77 -16.7576C231.969 -18.2508 226.969 -19.0103 221.941 -19.0101V-18.9726ZM-3.0907 -18.9726C-8.11905 -18.9727 -13.1186 -18.2133 -17.9201 -16.72C-18.5117 -16.5475 -19.0636 -16.2601 -19.5441 -15.8742C-20.0247 -15.4884 -20.4245 -15.0117 -20.7208 -14.4714C-21.0172 -13.931 -21.2042 -13.3376 -21.2711 -12.725C-21.3381 -12.1123 -21.2838 -11.4925 -21.1112 -10.9009C-20.9387 -10.3093 -20.6513 -9.75743 -20.2654 -9.27687C-19.8796 -8.79632 -19.4029 -8.39647 -18.8626 -8.10014C-18.3222 -7.80382 -17.7288 -7.61683 -17.1162 -7.54984C-16.5035 -7.48286 -15.8837 -7.5372 -15.2921 -7.70976C-9.9609 -9.39922 -4.3359 -9.95798 1.22347 -9.35032C6.78285 -8.74267 12.1543 -6.98197 16.9947 -4.18074C23.1193 -0.618416 28.2036 4.48664 31.7408 10.6258C35.2781 16.7649 37.1449 23.7238 37.1552 30.8091C37.1603 36.4006 36.0013 41.9319 33.752 47.051C31.5027 52.1702 28.2123 56.765 24.0903 60.543C23.6086 60.9597 23.2168 61.4702 22.9387 62.0432C22.6606 62.6163 22.5021 63.2399 22.4729 63.8762C22.4436 64.5125 22.5441 65.148 22.7684 65.7442C22.9926 66.3403 23.3359 66.8846 23.7773 67.3438C24.2186 67.8031 24.7489 68.1676 25.3357 68.4154C25.9225 68.6631 26.5535 68.7887 27.1905 68.7847C27.8274 68.7807 28.4569 68.647 29.0405 68.3919C29.6241 68.1367 30.1497 67.7655 30.5852 67.3007C35.6233 62.644 39.6422 56.994 42.3883 50.707C45.1344 44.42 46.5483 37.6322 46.5408 30.7716C46.5196 22.0391 44.2103 13.4646 39.8431 5.90261C35.4758 -1.65939 29.2031 -7.94488 21.65 -12.3275C14.1447 -16.6844 5.62499 -18.9891 -3.05315 -19.0101L-3.0907 -18.9726ZM402.672 -7.10907C401.729 -7.10439 400.809 -6.8158 400.033 -6.28092C399.256 -5.74603 398.659 -4.98966 398.318 -4.11037C397.978 -3.23109 397.91 -2.26966 398.124 -1.35139C398.338 -0.433113 398.824 0.399414 399.518 1.03771C404.024 5.19053 407.529 10.3125 409.767 16.0173V-1.85308C408.586 -3.2085 407.333 -4.49934 406.013 -5.71999C405.576 -6.16114 405.055 -6.51108 404.481 -6.74953C403.908 -6.98798 403.293 -7.11019 402.672 -7.10907ZM116.483 -7.10907C115.207 -7.10907 114.005 -6.58348 113.179 -5.71999C108.146 -1.06757 104.13 4.57631 101.384 10.8565C98.6377 17.1367 97.2213 23.9173 97.2236 30.7716C97.2344 39.5068 99.5349 48.0865 103.896 55.6554C108.257 63.2242 114.525 69.5177 122.077 73.9082C128.013 77.348 134.598 79.5178 141.416 80.2804C148.234 81.043 155.135 80.3816 161.685 78.3383C162.591 78.1042 163.407 77.6042 164.027 76.9026C164.648 76.201 165.044 75.3299 165.165 74.4014C165.286 73.4728 165.127 72.5292 164.707 71.692C164.288 70.8548 163.627 70.1623 162.811 69.7034C162.245 69.3845 161.619 69.1864 160.973 69.1218C160.327 69.0572 159.674 69.1274 159.057 69.328C153.723 71.0119 148.096 71.5644 142.537 70.9503C136.978 70.3362 131.607 68.5689 126.77 65.7614C120.645 62.1991 115.561 57.0941 112.024 50.9549C108.486 44.8158 106.62 37.8569 106.609 30.7716C106.604 25.1801 107.763 19.6488 110.012 14.5297C112.262 9.41053 115.552 4.81574 119.674 1.03771C120.37 0.397247 120.857 -0.438713 121.07 -1.36052C121.283 -2.28233 121.212 -3.24694 120.867 -4.12784C120.522 -5.00873 119.919 -5.76476 119.136 -6.29678C118.354 -6.82879 117.429 -7.11193 116.483 -7.10907ZM222.729 -3.95548C216.409 -4.08188 210.176 -2.47165 204.709 0.699821C199.439 3.75963 195.062 8.14526 192.013 13.4208C188.963 18.6964 187.348 24.6781 187.326 30.7716C187.326 39.5566 190.555 47.5907 195.924 53.6727C196.311 54.1767 196.798 54.5965 197.353 54.9068C197.908 55.217 198.521 55.4112 199.153 55.4774C199.786 55.5437 200.425 55.4807 201.033 55.2922C201.64 55.1038 202.203 54.7938 202.687 54.3811C203.171 53.9685 203.566 53.4618 203.848 52.8917C204.13 52.3217 204.294 51.7003 204.328 51.0652C204.363 50.4302 204.268 49.7947 204.049 49.1974C203.831 48.6001 203.493 48.0535 203.057 47.5907C198.938 42.9572 196.666 36.9711 196.674 30.7716C196.674 21.7613 201.555 13.3517 209.364 8.8466C214.727 5.73342 221.048 4.70433 227.122 5.95581C227.728 6.06674 228.35 6.05714 228.953 5.92756C229.556 5.79799 230.127 5.55096 230.634 5.2006C231.141 4.85024 231.575 4.4034 231.909 3.8856C232.244 3.3678 232.473 2.78918 232.584 2.18276C232.695 1.57635 232.685 0.954025 232.556 0.351318C232.426 -0.251385 232.179 -0.822659 231.829 -1.3299C231.478 -1.83714 231.032 -2.2704 230.514 -2.60495C229.996 -2.9395 229.417 -3.16878 228.811 -3.27971C226.808 -3.68505 224.772 -3.91121 222.729 -3.95548ZM-3.91664 -3.95548C-5.94395 -3.91794 -7.97126 -3.69268 -9.96103 -3.27971C-10.5674 -3.16878 -11.1461 -2.9395 -11.6639 -2.60495C-12.1817 -2.2704 -12.6285 -1.83714 -12.9789 -1.3299C-13.3292 -0.822659 -13.5762 -0.251385 -13.7058 0.351318C-13.8354 0.954025 -13.845 1.57635 -13.7341 2.18276C-13.6231 2.78918 -13.3939 3.3678 -13.0593 3.8856C-12.7248 4.4034 -12.2915 4.85024 -11.7843 5.2006C-11.277 5.55096 -10.7057 5.79799 -10.103 5.92756C-9.50034 6.05714 -8.87801 6.06674 -8.2716 5.95581C-2.21023 4.71389 4.09618 5.74269 9.44859 8.8466C13.2992 11.0785 16.4973 14.281 18.7238 18.1347C20.9504 21.9883 22.1276 26.3585 22.138 30.8091C22.138 37.2289 19.7353 43.1232 15.7558 47.6283C15.1562 48.3035 14.7641 49.1374 14.6266 50.0298C14.4891 50.9223 14.612 51.8355 14.9806 52.6599C15.3492 53.4842 15.9478 54.1847 16.7046 54.6774C17.4614 55.17 18.3442 55.4338 19.2472 55.4372C20.749 55.4372 22.063 54.7614 22.8889 53.6727C28.46 47.3452 31.5303 39.2021 31.5237 30.7716C31.5024 24.6781 29.8868 18.6964 26.8374 13.4208C23.788 8.14526 19.411 3.75963 14.1414 0.699821C8.67373 -2.47165 2.44056 -4.08188 -3.8791 -3.95548H-3.91664ZM-40.7461 -1.85308V15.9422C-36.9743 25.4687 -36.9743 36.0745 -40.7461 45.601L-40.7461 63.4338C-32.8863 54.3662 -28.5549 42.7714 -28.5447 30.7716C-28.5392 18.7915 -32.8737 7.21492 -40.7461 -1.81554V-1.85308ZM394.675 6.14352C393.772 6.14689 392.889 6.41071 392.132 6.90334C391.375 7.39597 390.777 8.09648 390.408 8.92084C390.04 9.7452 389.917 10.6584 390.054 11.5509C390.192 12.4434 390.584 13.2772 391.183 13.9524C395.302 18.5859 397.574 24.5721 397.566 30.7716C397.566 39.7818 392.685 48.229 384.876 52.7341C379.524 55.838 373.217 56.8668 367.156 55.6249C366.55 55.5115 365.927 55.5187 365.323 55.646C364.72 55.7733 364.147 56.0182 363.638 56.3668C363.129 56.7155 362.694 57.1609 362.357 57.6778C362.02 58.1946 361.788 58.7728 361.675 59.3792C361.561 59.9856 361.569 60.6084 361.696 61.212C361.823 61.8157 362.068 62.3883 362.417 62.8973C362.765 63.4063 363.211 63.8416 363.728 64.1785C364.245 64.5153 364.823 64.747 365.429 64.8604C373.426 66.4372 381.985 65.2358 389.569 60.8809C394.844 57.8179 399.225 53.4263 402.274 48.1436C405.324 42.8609 406.937 36.8714 406.951 30.7716C406.951 22.0241 403.685 13.99 398.317 7.87049C397.88 7.33509 397.331 6.9027 396.708 6.60417C396.085 6.30564 395.403 6.14835 394.712 6.14352H394.675ZM124.48 6.14352C123.015 6.14352 121.701 6.81929 120.876 7.87049C115.304 14.1979 112.234 22.3411 112.241 30.7716C112.252 36.8677 113.858 42.8548 116.901 48.1372C119.944 53.4196 124.317 57.8131 129.585 60.8809C136.877 65.1083 145.463 66.5237 153.725 64.8604C154.332 64.7495 154.91 64.5202 155.428 64.1857C155.946 63.8511 156.393 63.4178 156.743 62.9106C157.094 62.4034 157.341 61.8321 157.47 61.2294C157.6 60.6267 157.609 60.0044 157.498 59.3979C157.388 58.7915 157.158 58.2129 156.824 57.6951C156.489 57.1773 156.056 56.7305 155.549 56.3801C155.041 56.0297 154.47 55.7827 153.867 55.6531C153.265 55.5236 152.642 55.514 152.036 55.6249C145.963 56.8764 139.641 55.8473 134.278 52.7341C130.435 50.4975 127.244 47.2929 125.024 43.4396C122.805 39.5862 121.633 35.2186 121.626 30.7716C121.626 24.3518 124.029 18.4576 128.009 13.9524C128.61 13.2748 129.003 12.4375 129.139 11.5416C129.275 10.6457 129.149 9.7295 128.776 8.90371C128.403 8.07792 127.799 7.37784 127.036 6.88803C126.274 6.39823 125.386 6.13965 124.48 6.14352ZM222.429 11.0616C218.937 10.9865 215.408 11.8125 212.217 13.6896C209.223 15.4269 206.736 17.918 205.004 20.9149C203.272 23.9118 202.354 27.3101 202.343 30.7716C202.328 34.8583 203.588 38.848 205.947 42.1846C206.659 43.2102 207.75 43.9109 208.978 44.1327C210.207 44.3545 211.473 44.0791 212.499 43.3672C213.524 42.6553 214.225 41.5651 214.447 40.3365C214.669 39.1079 214.393 37.8415 213.681 36.816C212.835 35.6432 212.244 34.3064 211.946 32.8914C211.648 31.4765 211.649 30.0148 211.949 28.6003C212.25 27.1859 212.843 25.85 213.691 24.6786C214.539 23.5072 215.623 22.5263 216.872 21.7989C218.748 20.7204 220.915 20.2606 223.067 20.4849C223.686 20.5492 224.312 20.4898 224.908 20.3101C225.503 20.1304 226.058 19.8339 226.538 19.4379C227.018 19.042 227.415 18.5545 227.705 18.0038C227.995 17.4531 228.172 16.8502 228.227 16.2302C228.282 15.6102 228.213 14.9855 228.024 14.3925C227.835 13.7995 227.53 13.25 227.126 12.776C226.723 12.302 226.229 11.9129 225.674 11.6315C225.119 11.3501 224.514 11.1819 223.893 11.1367C223.393 11.0966 222.892 11.0715 222.391 11.0616H222.429ZM-3.57875 11.0616L-5.08046 11.1367C-5.69674 11.1909 -6.2963 11.366 -6.84491 11.652C-7.39351 11.9379 -7.88043 12.3291 -8.27785 12.8032C-9.08048 13.7608 -9.46987 14.9979 -9.36034 16.2425C-9.25081 17.4871 -8.65135 18.6373 -7.69382 19.4399C-6.7363 20.2425 -5.49914 20.6319 -4.25452 20.5224C-2.28554 20.3472 -0.307526 20.7389 1.44611 21.6512C3.19975 22.5636 4.65582 23.9585 5.64252 25.6714C6.62921 27.3843 7.10535 29.3437 7.01474 31.3184C6.92414 33.2931 6.27057 35.2006 5.13117 36.816C4.77866 37.3238 4.52962 37.896 4.39828 38.5001C4.26693 39.1041 4.25585 39.7282 4.36567 40.3365C4.58745 41.5651 5.2882 42.6553 6.31377 43.3672C7.33933 44.0791 8.60571 44.3545 9.83429 44.1327C11.0629 43.9109 12.1531 43.2102 12.865 42.1846C15.2381 38.8525 16.5113 34.8624 16.5066 30.7716C16.4966 27.3193 15.5835 23.9298 13.8579 20.9397C12.1324 17.9496 9.65448 15.4631 6.67042 13.7272C3.57056 11.9347 0.0388336 11.0258 -3.54121 11.0992L-3.57875 11.0616ZM384.388 17.2937C383.526 17.297 382.682 17.5376 381.947 17.9893C381.213 18.4409 380.617 19.0862 380.225 19.8541C379.834 20.6221 379.661 21.4831 379.727 22.3428C379.792 23.2024 380.093 24.0274 380.596 24.7272C381.442 25.9 382.033 27.2368 382.332 28.6517C382.63 30.0667 382.629 31.5284 382.328 32.9428C382.028 34.3573 381.434 35.6932 380.587 36.8645C379.739 38.0359 378.655 39.0169 377.405 39.7443C375.519 40.8306 373.337 41.2906 371.173 41.0583C370.557 41.0065 369.936 41.0767 369.347 41.2647C368.758 41.4527 368.212 41.7549 367.739 42.1541C366.785 42.9602 366.191 44.1123 366.086 45.3569C365.982 46.6016 366.376 47.8367 367.182 48.7907C367.988 49.7448 369.14 50.3394 370.385 50.444C374.327 50.7819 378.381 49.9935 382.061 47.8535C385.055 46.1162 387.541 43.6252 389.274 40.6283C391.006 37.6314 391.923 34.2331 391.934 30.7716C391.939 26.6808 390.666 22.6907 388.293 19.3586C387.861 18.7204 387.279 18.1982 386.599 17.8381C385.918 17.478 385.158 17.291 384.388 17.2937ZM134.766 17.2937C133.152 17.2937 131.763 18.1197 130.862 19.3586C128.502 22.6951 127.242 26.6849 127.258 30.7716C127.258 37.7921 131.012 44.3621 137.094 47.8535C140.636 49.9072 144.732 50.7999 148.807 50.4064C149.428 50.3613 150.034 50.1931 150.589 49.9117C151.144 49.6302 151.638 49.2412 152.041 48.7672C152.444 48.2932 152.749 47.7436 152.938 47.1506C153.127 46.5576 153.196 45.9329 153.141 45.313C153.087 44.693 152.909 44.0901 152.619 43.5394C152.329 42.9887 151.932 42.5012 151.452 42.1052C150.972 41.7093 150.418 41.4128 149.822 41.2331C149.226 41.0533 148.6 40.9939 147.981 41.0583C146.012 41.2335 144.034 40.8418 142.281 39.9295C140.527 39.0172 139.071 37.6222 138.084 35.9093C137.098 34.1964 136.622 32.237 136.712 30.2623C136.803 28.2877 137.456 26.3801 138.596 24.7647C139.112 24.0623 139.422 23.2301 139.492 22.3613C139.561 21.4924 139.388 20.6214 138.99 19.8458C138.592 19.0701 137.987 18.4205 137.241 17.9698C136.495 17.519 135.638 17.2849 134.766 17.2937ZM146.968 26.0787C145.723 26.0787 144.529 26.5732 143.649 27.4532C142.769 28.3333 142.275 29.527 142.275 30.7716C142.275 32.0162 142.769 33.2098 143.649 34.0899C144.529 34.97 145.723 35.4644 146.968 35.4644C148.212 35.4644 149.406 34.97 150.286 34.0899C151.166 33.2098 151.661 32.0162 151.661 30.7716C151.661 29.527 151.166 28.3333 150.286 27.4532C149.406 26.5732 148.212 26.0787 146.968 26.0787ZM222.053 26.0787C220.809 26.0787 219.615 26.5732 218.735 27.4532C217.855 28.3333 217.36 29.527 217.36 30.7716C217.36 32.0162 217.855 33.2098 218.735 34.0899C219.615 34.97 220.809 35.4644 222.053 35.4644C223.298 35.4644 224.492 34.97 225.372 34.0899C226.252 33.2098 226.746 32.0162 226.746 30.7716C226.746 29.527 226.252 28.3333 225.372 27.4532C224.492 26.5732 223.298 26.0787 222.053 26.0787ZM-3.54121 26.0787C-4.15749 26.1231 -4.75898 26.2884 -5.31137 26.5653C-5.86375 26.8421 -6.35619 27.225 -6.76059 27.6922C-7.16499 28.1593 -7.47341 28.7015 -7.66825 29.2879C-7.8631 29.8742 -7.94054 30.4932 -7.89617 31.1095C-7.8518 31.7257 -7.68648 32.3272 -7.40965 32.8796C-7.13282 33.432 -6.7499 33.9244 -6.28275 34.3288C-5.8156 34.7332 -5.27338 35.0417 -4.68704 35.2365C-4.10069 35.4314 -3.48171 35.5088 -2.86544 35.4644C-1.62082 35.3748 -0.462776 34.7944 0.353939 33.851C1.17065 32.9076 1.57913 31.6783 1.48952 30.4337C1.39991 29.1891 0.819542 28.031 -0.123905 27.2143C-1.06735 26.3976 -2.29659 25.9891 -3.54121 26.0787ZM372.562 26.0787C371.946 26.0344 371.327 26.1118 370.741 26.3067C370.154 26.5015 369.612 26.8099 369.145 27.2143C368.678 27.6187 368.295 28.1112 368.018 28.6635C367.741 29.2159 367.576 29.8174 367.531 30.4337C367.487 31.05 367.565 31.6689 367.759 32.2553C367.954 32.8416 368.263 33.3839 368.667 33.851C369.071 34.3182 369.564 34.7011 370.116 34.9779C370.669 35.2547 371.27 35.4201 371.886 35.4644C373.131 35.554 374.36 35.1456 375.304 34.3288C376.247 33.5121 376.828 32.3541 376.917 31.1095C377.007 29.8648 376.598 28.6356 375.782 27.6922C374.965 26.7487 373.807 26.1683 372.562 26.0787ZM259.596 31.0719C243.718 31.0589 228.39 36.8861 216.531 47.4437C204.672 58.0014 197.11 72.552 195.285 88.3246C195.128 89.2066 195.226 90.1153 195.568 90.9434C195.91 91.7714 196.482 92.4841 197.216 92.9974C197.951 93.5107 198.817 93.803 199.712 93.8398C200.607 93.8766 201.494 93.6564 202.268 93.2052C202.903 92.8321 203.441 92.3148 203.839 91.6952C204.237 91.0756 204.483 90.3711 204.558 89.6386C205.521 81.0192 208.496 72.7467 213.243 65.4884C217.991 58.2302 224.378 52.1894 231.889 47.8535C240.314 43.0116 249.861 40.4635 259.577 40.4635C269.294 40.4635 278.841 43.0116 287.265 47.8535C294.776 52.1894 301.164 58.2302 305.911 65.4884C310.659 72.7467 313.634 81.0192 314.596 89.6386C314.77 90.8733 315.428 91.9882 316.424 92.738C317.421 93.4878 318.674 93.8112 319.909 93.637C321.143 93.4627 322.258 92.8051 323.008 91.8089C323.758 90.8126 324.081 89.5593 323.907 88.3246C322.082 72.552 314.52 58.0014 302.661 47.4437C290.802 36.8861 275.474 31.0589 259.596 31.0719ZM409.767 45.5259C406.424 54.0401 400.297 61.1722 392.385 65.7614C387.544 68.5627 382.173 70.3234 376.614 70.931C371.054 71.5387 365.429 70.9799 360.098 69.2905C359.197 69.0131 358.233 69.0137 357.332 69.2922C356.431 69.5707 355.635 70.114 355.047 70.8515C354.46 71.589 354.108 72.4865 354.038 73.4268C353.968 74.3671 354.183 75.3068 354.654 76.1232C354.96 76.6626 355.37 77.1361 355.859 77.5163C356.349 77.8965 356.909 78.1758 357.508 78.3383C366.727 81.21 376.584 81.3257 385.869 78.6711C395.153 76.0166 403.459 70.7075 409.767 63.3962V45.5259ZM259.596 46.089C248.311 46.0703 237.356 49.8981 228.538 56.9414C219.72 63.9846 213.566 73.8227 211.091 84.8332C210.858 85.7269 210.895 86.6694 211.195 87.5426C211.496 88.4158 212.048 89.1809 212.781 89.7421C213.514 90.3032 214.397 90.6355 215.319 90.6972C216.24 90.7589 217.159 90.5474 217.961 90.0892C218.523 89.7705 219.013 89.3393 219.401 88.8225C219.788 88.3057 220.065 87.7144 220.214 87.0857C221.422 81.6224 223.755 76.4706 227.065 71.9589C230.374 67.4471 234.587 63.6743 239.436 60.8809C245.57 57.3566 252.521 55.502 259.596 55.502C266.671 55.502 273.622 57.3566 279.757 60.8809C284.605 63.6743 288.818 67.4471 292.127 71.9589C295.437 76.4706 297.77 81.6224 298.978 87.0857C299.188 88.0047 299.669 88.8395 300.359 89.4812C301.049 90.123 301.916 90.5421 302.848 90.6839C303.78 90.8257 304.733 90.6836 305.583 90.2762C306.433 89.8688 307.14 89.2149 307.613 88.3997C308.289 87.2735 308.402 85.997 308.101 84.8332C305.633 73.8157 299.482 63.9691 290.664 56.9185C281.845 49.8678 270.887 46.0346 259.596 46.0515V46.089ZM259.596 61.1061C252.334 61.0894 245.25 63.3571 239.348 67.5883C233.446 71.8195 229.024 77.7999 226.709 84.683C226.501 85.2648 226.411 85.8816 226.442 86.4983C226.474 87.1151 226.626 87.7196 226.891 88.2773C227.156 88.8351 227.528 89.3353 227.987 89.7492C228.445 90.1631 228.98 90.4828 229.562 90.6898C230.144 90.8969 230.76 90.9874 231.377 90.956C231.994 90.9247 232.598 90.7722 233.156 90.5073C233.714 90.2423 234.214 89.8701 234.628 89.4119C235.042 88.9536 235.362 88.4184 235.569 87.8366C237.515 81.962 241.549 77.0058 246.907 73.9082C250.761 71.6914 255.13 70.5247 259.577 70.5247C264.024 70.5247 268.393 71.6914 272.248 73.9082C277.613 76.9897 281.66 81.9323 283.623 87.799C284.037 88.974 284.9 89.9366 286.023 90.4752C287.146 91.0138 288.437 91.0843 289.612 90.6711C290.786 90.2579 291.749 89.3948 292.288 88.2718C292.826 87.1489 292.897 85.8579 292.484 84.683C290.174 77.7929 285.755 71.8044 279.852 67.566C273.95 63.3276 266.863 61.0545 259.596 61.0686V61.1061ZM409.767 71.5055C401.875 78.8079 392.024 83.6494 381.421 85.4365C370.818 87.2236 359.924 85.8789 350.074 81.5669C349.169 81.1757 348.164 81.0793 347.201 81.2915C346.239 81.5037 345.367 82.0137 344.711 82.7492C344.054 83.4847 343.646 84.4082 343.544 85.3888C343.442 86.3694 343.651 87.3572 344.142 88.212C344.689 89.1647 345.553 89.8954 346.583 90.2769C356.798 94.7004 367.983 96.4096 379.053 95.2388C390.123 94.068 400.703 90.0569 409.767 83.5943V71.5055ZM259.596 76.1608C255.829 76.1585 252.14 77.2358 248.966 79.2652C245.793 81.2945 243.267 84.1909 241.688 87.6113C241.424 88.1684 241.273 88.7721 241.242 89.3877C241.212 90.0033 241.303 90.619 241.51 91.1994C241.718 91.7798 242.038 92.3138 242.451 92.7706C242.865 93.2275 243.365 93.5984 243.922 93.8622C244.479 94.126 245.083 94.2774 245.698 94.3079C246.314 94.3384 246.93 94.2473 247.51 94.0399C248.09 93.8325 248.624 93.5128 249.081 93.099C249.538 92.6852 249.909 92.1855 250.173 91.6284C251.036 89.7137 252.5 88.0243 254.415 86.898C255.669 86.1784 257.06 85.7292 258.498 85.5793C259.936 85.4294 261.39 85.5822 262.765 86.0277C264.141 86.4732 265.408 87.2017 266.485 88.1663C267.562 89.1309 268.425 90.3102 269.019 91.6284C269.379 92.4114 269.948 93.0803 270.663 93.5615C271.378 94.0427 272.211 94.3178 273.072 94.3566C273.933 94.3954 274.788 94.1964 275.543 93.7813C276.299 93.3663 276.925 92.7513 277.354 92.0038C278.142 90.6148 278.18 89.0004 277.504 87.6113C275.933 84.1852 273.409 81.2837 270.233 79.2533C267.058 77.2228 263.365 76.1493 259.596 76.1608ZM109.763 91.1779C109.147 91.1335 108.528 91.211 107.941 91.4058C107.355 91.6007 106.813 91.9091 106.346 92.3135C105.878 92.7179 105.495 93.2103 105.219 93.7627C104.942 94.3151 104.777 94.9166 104.732 95.5329C104.688 96.1491 104.765 96.7681 104.96 97.3544C105.155 97.9408 105.463 98.483 105.868 98.9502C106.272 99.4173 106.765 99.8002 107.317 100.077C107.869 100.354 108.471 100.519 109.087 100.564C110.332 100.653 111.561 100.245 112.504 99.428C113.448 98.6113 114.028 97.4532 114.118 96.2086C114.207 94.964 113.799 93.7348 112.982 92.7913C112.166 91.8479 111.007 91.2675 109.763 91.1779ZM259.258 91.1779C258.621 91.1901 257.993 91.332 257.413 91.5948C256.832 91.8576 256.311 92.2359 255.882 92.7066C255.452 93.1772 255.123 93.7304 254.915 94.3325C254.706 94.9345 254.622 95.5727 254.668 96.2082C254.714 96.8438 254.889 97.4633 255.182 98.029C255.475 98.5948 255.88 99.0949 256.373 99.4989C256.866 99.9029 257.436 100.202 258.048 100.379C258.66 100.555 259.302 100.606 259.934 100.526C261.179 100.436 262.337 99.8561 263.153 98.9126C263.97 97.9692 264.379 96.7399 264.289 95.4953C264.199 94.2507 263.619 93.0927 262.675 92.2759C261.732 91.4592 260.503 91.0507 259.258 91.1404V91.1779ZM221.565 96.1335C212.915 96.1959 204.363 97.9827 196.412 101.39C195.252 101.853 194.323 102.757 193.83 103.905C193.337 105.053 193.321 106.349 193.784 107.509C194.247 108.669 195.151 109.598 196.299 110.09C197.447 110.583 198.743 110.6 199.903 110.137C207.846 106.666 216.494 105.113 225.149 105.602C233.803 106.091 242.221 108.609 249.722 112.953C258.129 117.833 265.111 124.83 269.973 133.249C274.834 141.667 277.404 151.212 277.429 160.932C277.429 169.606 275.391 178.158 271.478 185.899C267.565 193.64 261.888 200.353 254.903 205.496C253.917 206.267 253.279 207.399 253.127 208.642C252.976 209.884 253.324 211.136 254.096 212.122C254.868 213.108 255.999 213.746 257.242 213.898C258.485 214.049 259.737 213.701 260.722 212.929C268.828 206.9 275.409 199.056 279.94 190.027C284.47 180.999 286.825 171.034 286.815 160.932C286.79 149.562 283.785 138.396 278.1 128.548C272.416 118.7 264.249 110.514 254.415 104.806C244.45 99.0326 233.119 96.0378 221.603 96.1335H221.565ZM-2.71527 96.1335C-16.3442 96.0119 -29.6602 100.218 -40.7461 108.147V120.236C-32.8538 112.934 -23.0026 108.092 -12.3998 106.305C-1.79693 104.518 9.09696 105.863 18.9469 110.175C19.8562 110.575 20.8691 110.677 21.8398 110.465C22.8105 110.253 23.6889 109.738 24.3485 108.995C25.0081 108.252 25.4148 107.319 25.5101 106.33C25.6053 105.341 25.3843 104.347 24.8787 103.492C24.3277 102.551 23.4641 101.834 22.4384 101.465C14.4916 98.033 5.94032 96.2206 -2.71527 96.1335ZM95.384 97.3349C94.617 97.3908 93.8755 97.6343 93.2248 98.0441C92.574 98.4538 92.0339 99.0172 91.652 99.6846C91.2701 100.352 91.058 101.103 91.0345 101.872C91.011 102.64 91.1767 103.403 91.5171 104.093C93.2163 107.816 96.0389 110.915 99.5888 112.953C102.583 114.668 105.974 115.571 109.425 115.571C112.876 115.571 116.267 114.668 119.261 112.953C122.811 110.915 125.634 107.816 127.333 104.093C127.635 103.531 127.819 102.913 127.875 102.278C127.93 101.642 127.856 101.002 127.655 100.396C127.455 99.7906 127.133 99.2321 126.71 98.755C126.286 98.2778 125.77 97.892 125.193 97.6211C124.615 97.3502 123.988 97.1999 123.351 97.1794C122.713 97.1589 122.078 97.2686 121.484 97.5018C120.89 97.7351 120.35 98.0869 119.897 98.5359C119.444 98.9848 119.087 99.5215 118.848 100.113C118.018 101.908 116.691 103.428 115.025 104.493C113.358 105.559 111.422 106.125 109.444 106.125C107.466 106.125 105.529 105.559 103.863 104.493C102.196 103.428 100.87 101.908 100.039 100.113C99.6461 99.2253 98.9872 98.4814 98.1534 97.9838C97.3196 97.4862 96.352 97.2595 95.384 97.3349ZM49.3941 97.8981C48.7408 97.9461 48.1048 98.1304 47.527 98.439C46.9492 98.7477 46.4425 99.1738 46.0393 99.6901C45.6362 100.206 45.3456 100.801 45.1863 101.437C45.027 102.072 45.0024 102.734 45.1142 103.379C46.272 113.411 49.7609 123.032 55.302 131.474C60.843 139.916 68.2825 146.944 77.0256 151.997C86.8812 157.67 98.0534 160.655 109.425 160.655C120.797 160.655 131.969 157.67 141.824 151.997C150.567 146.944 158.007 139.916 163.548 131.474C169.089 123.032 172.578 113.411 173.736 103.379C173.867 102.751 173.868 102.102 173.739 101.473C173.609 100.844 173.352 100.249 172.983 99.7231C172.614 99.1976 172.142 98.7534 171.594 98.4179C171.047 98.0824 170.436 97.8628 169.801 97.7728C169.165 97.6827 168.517 97.724 167.898 97.8942C167.279 98.0643 166.702 98.3598 166.201 98.7621C165.701 99.1645 165.288 99.6653 164.989 100.233C164.69 100.802 164.511 101.425 164.463 102.065C163.5 110.685 160.525 118.957 155.778 126.216C151.03 133.474 144.643 139.515 137.132 143.85C129.168 148.465 120.179 151.02 110.98 151.284C101.78 151.549 92.6591 149.515 84.4436 145.366C76.228 141.217 69.1769 135.085 63.9288 127.524C58.6807 119.963 55.4012 111.213 54.3873 102.065C54.2455 100.867 53.6476 99.7694 52.7178 99.0004C51.788 98.2313 50.5977 97.85 49.3941 97.9356V97.8981ZM80.6297 100.676C79.8921 100.721 79.1755 100.939 78.5381 101.313C77.9008 101.686 77.3607 102.206 76.9619 102.828C76.563 103.45 76.3167 104.157 76.243 104.892C76.1693 105.627 76.2702 106.37 76.5375 107.059C79.24 115.049 84.767 121.777 92.0802 125.98C97.3586 129.01 103.339 130.604 109.425 130.604C115.511 130.604 121.491 129.01 126.77 125.98C134.083 121.777 139.61 115.049 142.312 107.059C142.52 106.477 142.61 105.86 142.579 105.243C142.547 104.626 142.395 104.022 142.13 103.464C141.865 102.906 141.493 102.406 141.034 101.992C140.576 101.578 140.041 101.259 139.459 101.052C138.877 100.845 138.261 100.754 137.644 100.785C137.027 100.817 136.423 100.969 135.865 101.234C135.307 101.499 134.807 101.871 134.393 102.33C133.979 102.788 133.659 103.323 133.452 103.905C131.498 109.766 127.465 114.707 122.114 117.796C118.255 120.02 113.879 121.19 109.425 121.19C104.971 121.19 100.595 120.02 96.7355 117.796C91.3851 114.707 87.3516 109.766 85.3976 103.905C85.0745 102.914 84.4304 102.058 83.567 101.473C82.7037 100.889 81.6702 100.608 80.6297 100.676ZM65.1245 100.977C64.4301 101.024 63.755 101.225 63.1479 101.565C62.5408 101.906 62.0171 102.377 61.6146 102.945C61.2121 103.512 60.9409 104.163 60.8207 104.848C60.7006 105.534 60.7344 106.237 60.9197 106.908C62.4334 113.596 65.3165 119.898 69.3873 125.417C73.4581 130.935 78.6283 135.55 84.5717 138.97C92.1399 143.318 100.716 145.605 109.444 145.605C118.172 145.605 126.748 143.318 134.316 138.97C140.256 135.542 145.422 130.919 149.486 125.394C153.55 119.87 156.426 113.562 157.93 106.871C158.163 105.977 158.126 105.035 157.826 104.161C157.525 103.288 156.974 102.523 156.24 101.962C155.507 101.401 154.624 101.068 153.702 101.007C152.781 100.945 151.862 101.157 151.06 101.615C150.498 101.933 150.008 102.365 149.62 102.881C149.233 103.398 148.956 103.99 148.807 104.618C147.599 110.082 145.266 115.233 141.956 119.745C138.647 124.257 134.434 128.03 129.585 130.823C123.451 134.347 116.5 136.202 109.425 136.202C102.35 136.202 95.399 134.347 89.2645 130.823C84.4204 128.034 80.2097 124.267 76.9005 119.762C73.5912 115.257 71.2557 110.112 70.0426 104.656C69.8018 103.554 69.1722 102.575 68.2691 101.9C67.3659 101.224 66.2496 100.896 65.1245 100.977ZM336.559 107.847C335.432 107.847 334.381 108.26 333.555 108.936C325.455 114.961 318.877 122.798 314.346 131.82C309.816 140.842 307.459 150.799 307.463 160.895C307.484 172.262 310.483 183.425 316.161 193.273C321.839 203.12 329.998 211.308 339.825 217.021C348.563 222.08 358.364 225.021 368.444 225.608C378.524 226.195 388.6 224.411 397.866 220.4C398.45 220.18 398.985 219.845 399.438 219.416C399.892 218.986 400.255 218.471 400.506 217.899C400.758 217.327 400.893 216.711 400.903 216.087C400.913 215.463 400.799 214.842 400.567 214.263C400.334 213.683 399.989 213.156 399.55 212.711C399.111 212.267 398.588 211.915 398.011 211.675C397.435 211.436 396.816 211.313 396.191 211.316C395.567 211.319 394.949 211.446 394.375 211.69C386.429 215.173 377.776 216.736 369.115 216.253C360.453 215.771 352.027 213.256 344.518 208.912C336.112 204.024 329.134 197.018 324.28 188.593C319.425 180.169 316.863 170.618 316.849 160.895C316.844 152.224 318.877 143.674 322.783 135.934C326.689 128.193 332.359 121.478 339.337 116.332C340.138 115.747 340.734 114.925 341.038 113.981C341.342 113.037 341.34 112.022 341.032 111.079C340.723 110.137 340.124 109.317 339.321 108.736C338.517 108.155 337.55 107.844 336.559 107.847ZM182.633 107.847C181.632 107.833 180.652 108.139 179.838 108.722C179.023 109.305 178.416 110.133 178.106 111.085C177.795 112.037 177.797 113.064 178.112 114.014C178.427 114.965 179.038 115.79 179.855 116.369C186.833 121.516 192.503 128.231 196.409 135.971C200.315 143.712 202.348 152.262 202.343 160.932C202.319 170.653 199.748 180.198 194.887 188.616C190.026 197.034 183.044 204.032 174.637 208.912C167.135 213.256 158.717 215.774 150.063 216.263C141.409 216.752 132.761 215.198 124.818 211.728C123.913 211.336 122.907 211.24 121.945 211.452C120.982 211.664 120.111 212.175 119.454 212.91C118.797 213.645 118.389 214.569 118.287 215.55C118.185 216.53 118.395 217.518 118.886 218.373C119.421 219.321 120.271 220.051 121.288 220.438C130.554 224.449 140.631 226.232 150.711 225.645C160.79 225.059 170.592 222.118 179.33 217.059C189.164 211.35 197.33 203.164 203.015 193.317C208.7 183.469 211.704 172.303 211.729 160.932C211.739 150.83 209.385 140.866 204.854 131.837C200.323 122.808 193.742 114.965 185.637 108.936C184.79 108.243 183.727 107.871 182.633 107.884V107.847ZM409.767 108.11C401.364 114.122 394.512 122.049 389.779 131.234C385.046 140.419 382.568 150.599 382.549 160.932C382.538 171.034 384.893 180.999 389.423 190.027C393.954 199.056 400.536 206.9 408.641 212.929C409.016 213.229 409.392 213.455 409.767 213.605V201.666C404.138 196.48 399.646 190.182 396.576 183.171C393.507 176.159 391.926 168.586 391.934 160.932C391.934 145.39 398.579 130.598 409.767 120.236V108.11ZM222.166 111.113C217.138 111.113 212.138 111.872 207.337 113.366C206.745 113.538 206.193 113.826 205.712 114.211C205.232 114.597 204.832 115.074 204.536 115.614C203.937 116.706 203.797 117.99 204.145 119.185C204.494 120.38 205.303 121.387 206.394 121.986C207.485 122.584 208.77 122.724 209.965 122.376C215.298 120.692 220.925 120.14 226.484 120.754C232.044 121.368 237.414 123.135 242.251 125.943C248.369 129.51 253.446 134.617 256.976 140.755C260.507 146.894 262.368 153.851 262.374 160.932C262.379 166.524 261.22 172.055 258.971 177.174C256.722 182.293 253.431 186.888 249.309 190.666C248.828 191.083 248.436 191.593 248.158 192.166C247.88 192.74 247.721 193.363 247.692 193.999C247.663 194.636 247.763 195.271 247.987 195.867C248.212 196.464 248.555 197.008 248.996 197.467C249.438 197.926 249.968 198.291 250.555 198.539C251.142 198.786 251.773 198.912 252.41 198.908C253.046 198.904 253.676 198.77 254.26 198.515C254.843 198.26 255.369 197.889 255.804 197.424C260.845 192.775 264.868 187.132 267.62 180.852C270.373 174.572 271.795 167.789 271.797 160.932C271.783 152.193 269.477 143.611 265.109 136.042C260.741 128.473 254.465 122.182 246.907 117.796C239.386 113.447 230.853 111.155 222.166 111.151V111.113ZM-3.31595 111.151C-10.4214 111.153 -17.4428 112.687 -23.9019 115.648C-30.3611 118.608 -36.1063 122.926 -40.7461 128.308L-40.7461 146.216C-37.41 137.687 -31.2828 130.541 -23.3638 125.943C-18.5234 123.141 -13.152 121.381 -7.59259 120.773C-2.03321 120.165 3.59179 120.724 8.92299 122.413C9.52422 122.617 10.1606 122.697 10.7936 122.648C11.4266 122.599 12.0431 122.422 12.6057 122.128C13.1683 121.834 13.6654 121.428 14.0668 120.937C14.4682 120.445 14.7656 119.876 14.9411 119.266C15.1165 118.656 15.1663 118.017 15.0874 117.387C15.0085 116.757 14.8027 116.149 14.4822 115.601C14.1618 115.053 13.7334 114.576 13.2232 114.198C12.7129 113.82 12.1312 113.55 11.5134 113.403C6.71193 111.91 1.7124 111.151 -3.31595 111.151ZM341.74 123.014C340.463 123.014 339.262 123.54 338.436 124.403C333.402 129.056 329.386 134.7 326.64 140.98C323.894 147.26 322.478 154.041 322.48 160.895C322.491 169.63 324.792 178.21 329.152 185.779C333.513 193.347 339.782 199.641 347.333 204.031C353.269 207.471 359.854 209.641 366.672 210.404C373.49 211.166 380.392 210.505 386.941 208.462C388.136 208.113 389.143 207.304 389.742 206.213C390.34 205.122 390.481 203.837 390.132 202.642C389.784 201.448 388.975 200.44 387.884 199.842C386.792 199.243 385.508 199.103 384.313 199.451C378.979 201.133 373.353 201.684 367.794 201.07C362.235 200.456 356.865 198.69 352.026 195.885C345.907 192.326 340.826 187.226 337.29 181.094C333.753 174.962 331.883 168.011 331.866 160.932C331.861 155.341 333.02 149.81 335.269 144.69C337.518 139.571 340.809 134.977 344.931 131.199C345.627 130.558 346.114 129.722 346.326 128.8C346.539 127.878 346.468 126.914 346.123 126.033C345.778 125.152 345.175 124.396 344.393 123.864C343.611 123.332 342.686 123.049 341.74 123.052V123.014ZM177.415 123.014C176.464 123.011 175.534 123.296 174.749 123.833C173.964 124.369 173.36 125.132 173.018 126.02C172.676 126.907 172.612 127.878 172.834 128.803C173.056 129.727 173.554 130.563 174.261 131.199C178.383 134.977 181.674 139.571 183.923 144.69C186.172 149.81 187.331 155.341 187.326 160.932C187.309 168.011 185.439 174.962 181.903 181.094C178.366 187.226 173.285 192.326 167.166 195.885C162.328 198.692 156.958 200.459 151.399 201.074C145.839 201.688 140.213 201.135 134.879 199.451C134.287 199.279 133.668 199.224 133.055 199.291C132.442 199.358 131.849 199.545 131.309 199.842C130.768 200.138 130.291 200.538 129.906 201.018C129.52 201.499 129.232 202.051 129.06 202.642C128.887 203.234 128.833 203.854 128.9 204.466C128.967 205.079 129.154 205.673 129.45 206.213C129.747 206.753 130.146 207.23 130.627 207.616C131.108 208.002 131.659 208.289 132.251 208.462C138.794 210.499 145.69 211.158 152.501 210.395C159.311 209.633 165.89 207.466 171.821 204.031C179.374 199.649 185.647 193.363 190.014 185.801C194.381 178.239 196.691 169.665 196.712 160.932C196.719 154.072 195.305 147.284 192.559 140.997C189.813 134.71 185.794 129.06 180.756 124.403C180.325 123.965 179.81 123.616 179.243 123.378C178.676 123.14 178.068 123.016 177.452 123.014H177.415ZM221.34 126.168C219.313 126.205 217.285 126.468 215.296 126.844C214.334 126.992 213.443 127.436 212.745 128.114C212.047 128.792 211.576 129.669 211.399 130.626C211.222 131.582 211.346 132.571 211.755 133.453C212.164 134.336 212.837 135.07 213.681 135.553C214.732 136.154 215.896 136.304 216.985 136.079C223.046 134.837 229.353 135.866 234.705 138.97C238.556 141.202 241.754 144.404 243.98 148.258C246.207 152.112 247.384 156.482 247.395 160.932C247.395 167.39 244.992 173.284 241.012 177.752C240.413 178.427 240.021 179.261 239.883 180.153C239.746 181.046 239.869 181.959 240.237 182.783C240.606 183.607 241.204 184.308 241.961 184.801C242.718 185.293 243.601 185.557 244.504 185.56C246.006 185.56 247.32 184.885 248.145 183.833C253.717 177.506 256.787 169.363 256.78 160.932C256.766 154.833 255.153 148.843 252.103 143.56C249.054 138.278 244.673 133.886 239.398 130.823C233.93 127.652 227.697 126.041 221.378 126.168H221.34ZM-2.49002 126.168C-8.82945 126.057 -15.077 127.694 -20.5481 130.898C-25.8121 133.955 -30.1856 138.334 -33.2347 143.603C-36.2838 148.871 -37.9026 154.845 -37.9304 160.932C-37.9304 169.717 -34.6642 177.714 -29.2955 183.833C-28.6781 184.574 -27.8476 185.106 -26.9169 185.358C-25.9863 185.61 -25.0006 185.569 -24.0941 185.241C-23.1876 184.912 -22.4041 184.313 -21.8503 183.524C-21.2964 182.735 -20.999 181.794 -20.9986 180.83C-20.9986 179.704 -21.4116 178.577 -22.1624 177.752C-26.2812 173.118 -28.5528 167.132 -28.5447 160.932C-28.5447 151.922 -23.6641 143.475 -15.8552 138.97C-10.5028 135.866 -4.19642 134.837 1.86495 136.079C2.47136 136.19 3.09369 136.18 3.69639 136.051C4.29909 135.921 4.87037 135.674 5.37761 135.324C5.88485 134.973 6.31811 134.527 6.65266 134.009C6.98721 133.491 7.21649 132.912 7.32742 132.306C7.43835 131.7 7.42875 131.077 7.29917 130.475C7.16959 129.872 6.92257 129.301 6.57221 128.793C6.22185 128.286 5.77501 127.853 5.25721 127.518C4.73941 127.184 4.16079 126.954 3.55437 126.844C1.56374 126.439 -0.45911 126.212 -2.49002 126.168ZM409.767 128.308C401.927 137.357 397.597 148.921 397.566 160.895C397.542 172.901 401.878 184.507 409.767 193.557V175.762C406.009 166.246 406.009 155.657 409.767 146.141V128.27V128.308ZM349.736 136.267C348.272 136.267 346.958 136.98 346.095 138.031C340.523 144.359 337.453 152.502 337.46 160.932C337.481 167.026 339.097 173.008 342.146 178.283C345.195 183.559 349.573 187.944 354.842 191.004C362.134 195.232 370.719 196.647 378.982 194.984C379.588 194.873 380.167 194.643 380.685 194.309C381.203 193.974 381.65 193.541 382 193.034C382.35 192.527 382.597 191.955 382.727 191.353C382.856 190.75 382.866 190.128 382.755 189.521C382.644 188.915 382.415 188.336 382.08 187.818C381.746 187.301 381.313 186.854 380.805 186.503C380.298 186.153 379.727 185.906 379.124 185.776C378.521 185.647 377.899 185.637 377.293 185.748C371.224 187.011 364.903 185.995 359.535 182.895C355.686 180.655 352.492 177.445 350.272 173.584C348.051 169.724 346.883 165.348 346.883 160.895C346.883 154.475 349.286 148.581 353.265 144.113C353.867 143.436 354.26 142.598 354.396 141.702C354.532 140.806 354.406 139.89 354.033 139.064C353.66 138.239 353.055 137.539 352.293 137.049C351.53 136.559 350.642 136.3 349.736 136.304V136.267ZM169.493 136.304C168.587 136.3 167.699 136.559 166.937 137.049C166.174 137.539 165.57 138.239 165.197 139.064C164.824 139.89 164.698 140.806 164.834 141.702C164.97 142.598 165.363 143.436 165.964 144.113C170.083 148.747 172.355 154.733 172.347 160.932C172.347 169.943 167.466 178.39 159.695 182.895C154.332 186.008 148.01 187.037 141.937 185.786C141.331 185.675 140.708 185.684 140.106 185.814C139.503 185.944 138.932 186.191 138.424 186.541C137.917 186.891 137.484 187.338 137.149 187.856C136.815 188.374 136.585 188.952 136.475 189.559C136.364 190.165 136.373 190.787 136.503 191.39C136.632 191.993 136.879 192.564 137.23 193.071C137.58 193.579 138.027 194.012 138.545 194.346C139.063 194.681 139.641 194.91 140.248 195.021C148.207 196.598 156.766 195.397 164.388 191.042C169.649 187.969 174.014 183.574 177.05 178.292C180.087 173.009 181.688 167.025 181.695 160.932C181.695 152.147 178.429 144.151 173.06 138.031C172.619 137.491 172.064 137.056 171.434 136.757C170.804 136.458 170.115 136.304 169.418 136.304H169.493ZM221.753 141.185C221.227 141.185 220.739 141.222 220.251 141.298C219.624 141.331 219.01 141.491 218.445 141.766C217.88 142.042 217.377 142.428 216.964 142.902C216.551 143.375 216.238 143.927 216.043 144.524C215.847 145.122 215.774 145.752 215.827 146.378C215.88 147.004 216.058 147.613 216.35 148.169C216.643 148.725 217.044 149.217 217.53 149.615C218.016 150.013 218.578 150.309 219.18 150.486C219.783 150.663 220.415 150.717 221.04 150.646C223.015 150.464 225 150.854 226.761 151.768C228.521 152.682 229.982 154.081 230.97 155.801C231.959 157.521 232.433 159.488 232.336 161.469C232.239 163.45 231.576 165.361 230.425 166.977C230.075 167.485 229.829 168.056 229.7 168.659C229.571 169.263 229.562 169.885 229.673 170.492C229.785 171.098 230.015 171.677 230.35 172.195C230.685 172.713 231.119 173.159 231.627 173.509C232.134 173.859 232.706 174.106 233.309 174.235C233.912 174.364 234.535 174.373 235.142 174.261C235.748 174.15 236.327 173.92 236.845 173.585C237.362 173.25 237.809 172.816 238.159 172.308C240.525 168.986 241.798 165.01 241.801 160.932C241.801 153.912 238.009 147.342 231.927 143.85C228.827 142.058 225.295 141.149 221.715 141.222L221.753 141.185ZM-2.79036 141.222C-6.28183 141.147 -9.81085 142.011 -13.002 143.85C-16.0055 145.58 -18.502 148.068 -20.2414 151.066C-21.9808 154.064 -22.9022 157.466 -22.9133 160.932C-22.9179 165.023 -21.6448 169.013 -19.2716 172.345C-18.9191 172.853 -18.47 173.287 -17.95 173.621C-17.43 173.955 -16.8493 174.184 -16.2409 174.293C-15.6326 174.403 -15.0086 174.392 -14.4045 174.261C-13.8005 174.13 -13.2282 173.88 -12.7204 173.528C-12.2126 173.175 -11.7792 172.726 -11.4449 172.206C-11.1107 171.686 -10.8821 171.106 -10.7723 170.497C-10.6625 169.889 -10.6736 169.265 -10.8049 168.661C-10.9363 168.057 -11.1853 167.485 -11.5378 166.977C-12.6887 165.361 -13.3518 163.45 -13.4484 161.469C-13.545 159.488 -13.071 157.521 -12.0827 155.801C-11.0945 154.081 -9.63341 152.682 -7.87311 151.768C-6.1128 150.854 -4.1272 150.464 -2.15213 150.646C-1.53308 150.71 -0.907398 150.651 -0.311523 150.471C0.284348 150.291 0.83852 149.995 1.31872 149.599C1.79893 149.203 2.19557 148.715 2.48557 148.165C2.77557 147.614 2.95312 147.011 3.0079 146.391C3.06267 145.771 2.99358 145.146 2.80463 144.553C2.61568 143.96 2.31067 143.411 1.90733 142.937C1.50399 142.463 1.01038 142.074 0.455254 141.792C-0.0998726 141.511 -0.705437 141.343 -1.32619 141.298C-1.82591 141.258 -2.3267 141.233 -2.8279 141.222H-2.79036ZM360.06 147.455C358.446 147.455 357.057 148.243 356.156 149.519C353.796 152.856 352.536 156.846 352.552 160.932C352.559 164.39 353.471 167.786 355.196 170.783C356.922 173.779 359.401 176.272 362.388 178.014C365.93 180.068 370.026 180.961 374.102 180.567C374.718 180.513 375.317 180.338 375.866 180.052C376.415 179.766 376.901 179.375 377.299 178.901C377.696 178.427 377.996 177.879 378.182 177.289C378.368 176.699 378.436 176.078 378.381 175.461C378.327 174.845 378.152 174.246 377.866 173.697C377.58 173.148 377.189 172.661 376.715 172.264C376.241 171.867 375.693 171.566 375.103 171.381C374.513 171.195 373.892 171.127 373.276 171.182C371.307 171.357 369.329 170.965 367.575 170.053C365.821 169.14 364.365 167.745 363.379 166.033C362.392 164.32 361.916 162.36 362.006 160.386C362.097 158.411 362.75 156.503 363.89 154.888C364.395 154.186 364.697 153.357 364.76 152.494C364.824 151.631 364.649 150.767 364.252 149.998C363.856 149.229 363.255 148.584 362.515 148.135C361.775 147.686 360.926 147.451 360.06 147.455ZM159.207 147.455C158.341 147.451 157.492 147.686 156.752 148.135C156.012 148.584 155.411 149.229 155.015 149.998C154.619 150.767 154.443 151.631 154.507 152.494C154.571 153.357 154.872 154.186 155.377 154.888C156.528 156.503 157.191 158.415 157.288 160.396C157.385 162.377 156.911 164.344 155.922 166.064C154.934 167.783 153.473 169.183 151.713 170.097C149.952 171.011 147.967 171.4 145.992 171.219C145.375 171.165 144.754 171.233 144.164 171.418C143.574 171.604 143.026 171.904 142.552 172.302C142.078 172.699 141.687 173.186 141.401 173.735C141.115 174.283 140.94 174.883 140.886 175.499C140.832 176.115 140.899 176.736 141.085 177.326C141.271 177.916 141.571 178.464 141.968 178.938C142.366 179.412 142.853 179.804 143.401 180.09C143.95 180.375 144.549 180.551 145.166 180.605C149.108 180.98 153.2 180.154 156.879 177.977C159.856 176.236 162.326 173.748 164.045 170.758C165.764 167.768 166.672 164.381 166.678 160.932C166.678 156.69 165.326 152.748 163.036 149.519C162.608 148.886 162.032 148.368 161.359 148.008C160.685 147.648 159.933 147.458 159.169 147.455H159.207ZM-3.20333 156.24C-4.44794 156.24 -5.64159 156.734 -6.52167 157.614C-7.40175 158.494 -7.89617 159.688 -7.89617 160.932C-7.89617 162.177 -7.40175 163.371 -6.52167 164.251C-5.64159 165.131 -4.44794 165.625 -3.20333 165.625C-1.95871 165.625 -0.765064 165.131 0.115017 164.251C0.995098 163.371 1.48952 162.177 1.48952 160.932C1.48952 159.688 0.995098 158.494 0.115017 157.614C-0.765064 156.734 -1.95871 156.24 -3.20333 156.24ZM372.224 156.24C370.98 156.24 369.786 156.734 368.906 157.614C368.026 158.494 367.531 159.688 367.531 160.932C367.531 162.177 368.026 163.371 368.906 164.251C369.786 165.131 370.98 165.625 372.224 165.625C373.469 165.625 374.663 165.131 375.543 164.251C376.423 163.371 376.917 162.177 376.917 160.932C376.917 159.688 376.423 158.494 375.543 157.614C374.663 156.734 373.469 156.24 372.224 156.24ZM147.306 156.24C146.061 156.15 144.832 156.558 143.888 157.375C142.945 158.192 142.365 159.35 142.275 160.594C142.185 161.839 142.594 163.068 143.41 164.012C144.227 164.955 145.385 165.536 146.63 165.625C147.246 165.67 147.865 165.592 148.451 165.397C149.038 165.202 149.58 164.894 150.047 164.49C150.514 164.085 150.897 163.593 151.174 163.04C151.451 162.488 151.616 161.887 151.661 161.27C151.705 160.654 151.628 160.035 151.433 159.449C151.238 158.862 150.929 158.32 150.525 157.853C150.121 157.386 149.628 157.003 149.076 156.726C148.523 156.449 147.922 156.284 147.306 156.24ZM221.715 156.24C221.099 156.284 220.498 156.449 219.945 156.726C219.393 157.003 218.9 157.386 218.496 157.853C218.092 158.32 217.783 158.862 217.588 159.449C217.393 160.035 217.316 160.654 217.36 161.27C217.405 161.887 217.57 162.488 217.847 163.04C218.124 163.593 218.507 164.085 218.974 164.49C219.441 164.894 219.983 165.202 220.57 165.397C221.156 165.592 221.775 165.67 222.391 165.625C223.636 165.536 224.794 164.955 225.611 164.012C226.427 163.068 226.836 161.839 226.746 160.594C226.657 159.35 226.076 158.192 225.133 157.375C224.189 156.558 222.96 156.15 221.715 156.24ZM34.377 161.233C18.4862 161.201 3.1399 167.02 -8.7351 177.579C-20.6101 188.139 -28.1828 202.7 -30.0089 218.485C-30.1579 219.365 -30.0535 220.268 -29.7077 221.09C-29.3619 221.912 -28.7892 222.618 -28.0565 223.126C-27.3238 223.634 -26.4616 223.923 -25.5706 223.959C-24.6797 223.995 -23.797 223.776 -23.0259 223.328C-22.3911 222.955 -21.8531 222.438 -21.4553 221.818C-21.0574 221.199 -20.811 220.494 -20.7358 219.762C-19.7636 211.146 -16.7802 202.878 -12.0263 195.627C-7.2723 188.375 -0.880791 182.342 6.63288 178.014C15.0572 173.172 24.604 170.624 34.3207 170.624C44.0373 170.624 53.5841 173.172 62.0085 178.014C69.5199 182.35 75.907 188.391 80.6545 195.649C85.402 202.907 88.3771 211.18 89.3396 219.799C89.388 220.44 89.5673 221.063 89.8663 221.631C90.1654 222.199 90.5779 222.7 91.0782 223.103C91.5785 223.505 92.1561 223.8 92.7752 223.971C93.3943 224.141 94.0418 224.182 94.6775 224.092C95.3132 224.002 95.9237 223.782 96.4711 223.447C97.0185 223.111 97.4913 222.667 97.8602 222.142C98.2291 221.616 98.4862 221.02 98.6156 220.392C98.745 219.763 98.744 219.114 98.6127 218.485C96.7888 202.719 89.2322 188.174 77.3809 177.617C65.5296 167.06 50.2108 161.229 34.3394 161.233H34.377ZM-40.7461 175.762V193.557C-39.566 194.925 -38.3127 196.229 -36.9918 197.461C-36.3376 198.125 -35.5008 198.578 -34.5879 198.765C-33.675 198.951 -32.7274 198.861 -31.8657 198.506C-31.0041 198.152 -30.2674 197.549 -29.7495 196.775C-29.2316 196 -28.956 195.089 -28.9577 194.158C-28.9577 192.769 -29.5583 191.53 -30.4594 190.704C-34.9747 186.566 -38.492 181.457 -40.7461 175.762V175.762ZM34.3394 176.25C23.0592 176.229 12.1085 180.052 3.29146 187.087C-5.52556 194.123 -11.6828 203.953 -14.1658 214.956C-14.4645 216.166 -14.2704 217.445 -13.6262 218.512C-12.982 219.578 -11.9404 220.345 -10.7307 220.644C-9.52088 220.943 -8.242 220.749 -7.17534 220.105C-6.10868 219.46 -5.34163 218.419 -5.04292 217.209C-3.83458 211.746 -1.50132 206.594 1.80816 202.082C5.11765 197.57 9.33075 193.798 14.179 191.004C20.318 187.473 27.2761 185.614 34.3582 185.614C41.4403 185.614 48.3985 187.473 54.5374 191.004C59.3828 193.806 63.5911 197.586 66.8942 202.104C70.1973 206.623 72.5226 211.78 73.7218 217.247C73.9309 218.166 74.4119 219 75.1022 219.642C75.7924 220.284 76.6599 220.703 77.5917 220.845C78.5234 220.986 79.4763 220.844 80.3262 220.437C81.1761 220.03 81.8836 219.376 82.3566 218.561C83.0324 217.434 83.145 216.158 82.8447 214.994C80.3691 203.983 74.215 194.145 65.3973 187.102C56.5796 180.059 45.6248 176.231 34.3394 176.25ZM34.3394 191.267C27.0819 191.248 20.0019 193.51 14.1003 197.734C8.19866 201.958 3.77405 207.93 1.45198 214.806C1.03378 215.981 1.09946 217.274 1.63454 218.401C2.16964 219.527 3.13031 220.395 4.30523 220.813C5.48015 221.231 6.77308 221.166 7.89958 220.631C9.02608 220.095 9.89388 219.135 10.3121 217.96C12.2674 212.079 16.3159 207.122 21.6875 204.031C25.5424 201.815 29.9114 200.648 34.3582 200.648C38.805 200.648 43.174 201.815 47.0289 204.031C52.3864 207.129 56.4208 212.085 58.3668 217.96C58.6517 218.819 59.1792 219.578 59.8857 220.144C60.5921 220.711 61.4473 221.061 62.3482 221.152C63.2491 221.243 64.1571 221.072 64.9628 220.659C65.7685 220.246 66.4375 219.608 66.889 218.823C67.6399 217.547 67.715 216.083 67.2269 214.806C64.9048 207.93 60.4802 201.958 54.5786 197.734C48.677 193.51 41.597 191.248 34.3394 191.267ZM-40.7461 201.666V213.605C-39.6908 214.055 -38.5073 214.102 -37.4192 213.739C-36.3312 213.376 -35.4139 212.626 -34.8408 211.632C-34.2677 210.639 -34.0784 209.469 -34.3087 208.346C-34.539 207.222 -35.173 206.221 -36.0908 205.533C-37.7129 204.318 -39.267 203.014 -40.7461 201.629L-40.7461 201.666ZM34.3394 206.284C30.5682 206.285 26.8765 207.368 23.7023 209.404C20.5281 211.441 18.0047 214.345 16.4315 217.772C16.1294 218.334 15.9449 218.952 15.8895 219.587C15.834 220.223 15.9088 220.863 16.1091 221.468C16.3094 222.074 16.6311 222.633 17.0545 223.11C17.478 223.587 17.9942 223.973 18.5718 224.244C19.1494 224.515 19.7761 224.665 20.4137 224.685C21.0514 224.706 21.6865 224.596 22.2803 224.363C22.874 224.13 23.414 223.778 23.8673 223.329C24.3205 222.88 24.6774 222.343 24.9162 221.752C25.7419 219.946 27.0691 218.416 28.7396 217.343C30.4102 216.27 32.3539 215.699 34.3394 215.699C36.3249 215.699 38.2686 216.27 39.9392 217.343C41.6098 218.416 42.937 219.946 43.7627 221.752C44.0015 222.343 44.3584 222.88 44.8116 223.329C45.2648 223.778 45.8048 224.13 46.3986 224.363C46.9924 224.596 47.6275 224.706 48.2651 224.685C48.9028 224.665 49.5295 224.515 50.1071 224.244C50.6846 223.973 51.2009 223.587 51.6244 223.11C52.0478 222.633 52.3695 222.074 52.5698 221.468C52.7701 220.863 52.8448 220.223 52.7894 219.587C52.7339 218.952 52.5495 218.334 52.2473 217.772C50.6818 214.339 48.1602 211.43 44.9843 209.392C41.8084 207.355 38.1127 206.276 34.3394 206.284ZM34.0016 221.301C32.8164 221.387 31.7078 221.919 30.8996 222.79C30.0913 223.661 29.6435 224.806 29.6466 225.994H39.0323C39.034 225.348 38.9023 224.709 38.6457 224.116C38.389 223.524 38.0128 222.991 37.5406 222.55C37.0684 222.11 36.5103 221.771 35.9014 221.557C35.2924 221.342 34.6456 221.255 34.0016 221.301ZM335.019 221.301C334.374 221.249 333.725 221.332 333.114 221.545C332.502 221.757 331.942 222.095 331.468 222.537C330.995 222.979 330.619 223.514 330.364 224.11C330.109 224.705 329.981 225.347 329.989 225.994H339.374C339.387 224.803 338.942 223.653 338.132 222.78C337.322 221.907 336.208 221.378 335.019 221.301Z" fill="white"/>
</g>
</g>
<defs>
<clipPath id="clip0_3866_23818">
<rect width="352" height="226.367" fill="white" transform="translate(0 -26.3667)"/>
</clipPath>
</defs>
</svg>
